<?xml version="1.0" standalone="no"?>
<!DOCTYPE svg PUBLIC "-//W3C//DTD SVG 20010904//EN"
 "http://www.w3.org/TR/2001/REC-SVG-20010904/DTD/svg10.dtd">
<svg version="1.0" xmlns="http://www.w3.org/2000/svg"
 width="1024.000000pt" height="1024.000000pt" viewBox="0 0 1024.000000 1024.000000"
 preserveAspectRatio="xMidYMid meet">
<metadata>
Created by potrace 1.11, written by Peter Selinger 2001-2013
</metadata>
<g transform="translate(0.000000,1024.000000) scale(0.100000,-0.100000)"
fill="#000000" stroke="none">
<path d="M1656 9603 c-1 -2 -49 -5 -106 -8 -56 -2 -112 -7 -122 -11 -11 -3
-30 -8 -41 -9 -12 -2 -40 -9 -62 -15 -22 -6 -50 -14 -62 -17 -13 -3 -23 -9
-23 -14 0 -5 -6 -9 -13 -9 -23 0 -145 -67 -204 -113 -85 -65 -162 -147 -222
-236 -41 -60 -101 -182 -101 -204 0 -7 -4 -17 -9 -23 -6 -5 -19 -52 -30 -104
-19 -94 -20 -137 -18 -3740 1 -2005 5 -3654 9 -3665 3 -11 11 -41 17 -67 27
-119 113 -289 190 -378 38 -44 135 -140 142 -140 3 0 17 -9 30 -21 84 -73 239
-140 404 -175 11 -2 58 -6 104 -9 46 -3 88 -8 92 -11 5 -3 9 -2 9 3 0 4 18 8
40 8 22 0 40 -3 40 -6 0 -4 17 -3 38 1 21 3 47 3 58 0 10 -4 23 -5 28 -2 13 8
163 5 176 -3 5 -3 10 -3 10 2 0 4 29 8 65 8 36 0 65 -3 65 -7 0 -4 12 -3 28 1
15 5 36 5 47 1 11 -4 24 -5 29 -2 6 3 28 5 50 4 55 -3 55 -3 104 0 23 2 42 0
42 -4 0 -4 12 -3 28 1 15 5 36 5 47 1 11 -4 24 -5 29 -2 14 8 76 8 76 0 0 -4
12 -3 28 1 15 5 36 5 47 1 11 -4 24 -5 29 -2 6 3 28 5 50 4 55 -3 55 -3 104 0
23 2 42 0 42 -4 0 -4 12 -3 28 1 15 5 36 5 47 1 11 -4 29 -4 40 0 11 4 32 4
48 -1 15 -4 27 -4 27 0 0 4 25 4 55 1 30 -3 55 -4 55 -1 0 4 18 6 40 6 22 0
40 -3 40 -6 0 -4 17 -3 38 1 21 4 48 3 60 -1 12 -5 23 -5 26 -1 5 8 80 6 103
-2 7 -3 13 -2 13 2 0 4 18 7 40 7 22 0 40 -3 40 -6 0 -4 17 -3 38 1 21 3 47 3
58 0 10 -4 23 -5 28 -2 6 3 37 5 70 4 34 -1 80 -1 104 -1 23 0 62 -1 87 -1 49
0 67 0 90 0 8 1 36 0 61 0 25 -1 48 1 51 3 2 3 17 1 33 -3 16 -4 31 -6 34 -2
7 7 74 7 81 0 3 -3 24 -2 45 2 22 4 43 4 46 -1 2 -4 15 -4 27 0 12 5 34 5 49
0 16 -4 28 -5 28 -1 0 6 65 7 80 2 3 -2 9 -2 15 0 28 5 95 4 95 -2 0 -4 12 -3
27 1 16 4 40 4 56 0 15 -4 27 -4 27 -1 0 8 63 8 76 0 5 -3 18 -2 29 2 11 4 32
4 48 -1 15 -4 27 -4 27 0 0 4 25 4 55 1 30 -3 55 -4 55 -1 0 4 18 6 40 6 22 0
40 -3 40 -6 0 -4 17 -3 38 1 21 4 48 3 60 -1 12 -5 23 -5 26 -1 5 8 80 6 103
-2 7 -3 13 -2 13 2 0 4 18 7 40 7 22 0 40 -3 40 -6 0 -4 17 -3 38 1 21 3 47 3
58 0 10 -4 23 -5 28 -2 13 8 163 5 176 -3 5 -3 10 -3 10 2 0 4 29 8 65 8 36 0
65 -3 65 -7 0 -4 12 -3 28 1 15 5 36 5 47 1 11 -4 24 -5 29 -2 6 3 28 5 50 4
55 -3 55 -3 104 0 23 2 42 0 42 -4 0 -4 12 -3 28 1 15 5 36 5 47 1 11 -4 24
-5 29 -2 14 8 76 8 76 0 0 -4 12 -3 28 1 15 5 36 5 47 1 11 -4 24 -5 29 -2 6
3 28 5 50 4 55 -3 55 -3 104 0 23 2 42 0 42 -4 0 -4 12 -3 28 1 15 5 36 5 47
1 11 -4 24 -5 29 -2 15 8 76 8 76 -1 0 -5 4 -6 9 -2 5 3 39 8 74 10 36 3 75 8
88 11 13 3 33 7 44 9 46 9 107 26 123 34 9 5 51 26 92 45 41 20 106 60 144 88
103 77 1825 1803 1887 1891 49 70 100 166 124 237 1 3 5 12 8 20 4 8 14 44 24
80 17 61 18 235 20 2875 2 2767 2 2811 -17 2895 -11 47 -22 92 -24 101 -7 27
-49 122 -64 147 -8 12 -10 22 -6 22 5 0 4 4 -1 8 -6 4 -25 30 -43 57 -31 49
-54 78 -111 140 -50 54 -162 145 -179 145 -6 0 -12 4 -14 8 -8 20 -224 111
-278 117 -8 1 -28 5 -45 9 -61 13 -287 21 -465 15 -8 0 -55 0 -105 0 -49 0
-99 1 -110 1 -11 0 -73 0 -137 1 -65 0 -122 -2 -128 -6 -5 -3 -10 -3 -10 2 0
6 -180 8 -305 3 -11 0 -50 -1 -87 -1 -38 0 -75 0 -83 0 -8 0 -44 0 -80 0 -36
0 -72 0 -80 0 -8 0 -44 0 -80 1 -36 0 -84 0 -107 0 -24 0 -95 0 -158 1 -63 0
-120 0 -125 -1 -6 -1 -14 -2 -20 0 -5 1 -50 1 -100 0 -49 0 -97 -1 -105 -1
-171 2 -247 2 -255 1 -6 -1 -14 -2 -20 0 -5 1 -50 1 -100 0 -49 0 -94 -1 -100
-1 -5 0 -39 0 -75 0 -36 1 -72 1 -80 1 -8 0 -69 0 -135 0 -66 0 -128 0 -137 0
-10 -1 -47 -1 -83 -1 -36 0 -72 0 -80 0 -8 0 -44 0 -80 0 -36 0 -72 0 -80 0
-8 0 -44 0 -80 0 -36 0 -71 0 -77 0 -14 0 -183 0 -208 0 -8 0 -62 0 -120 0
-58 0 -114 0 -125 1 -11 0 -55 0 -97 0 -43 1 -82 -1 -88 -5 -5 -3 -10 -3 -10
2 0 4 -44 7 -97 5 -54 -1 -105 -3 -113 -3 -206 2 -251 1 -260 -4 -5 -3 -10 -3
-10 2 0 6 -180 8 -305 3 -11 0 -50 -1 -87 -1 -38 0 -75 0 -83 0 -8 0 -44 0
-80 0 -36 0 -72 0 -80 0 -8 0 -44 0 -80 1 -36 0 -84 0 -107 0 -24 0 -95 0
-158 1 -63 0 -120 0 -125 -1 -6 -1 -14 -2 -20 0 -5 1 -50 1 -100 0 -49 0 -97
-1 -105 -1 -171 2 -247 2 -255 1 -6 -1 -14 -2 -20 0 -5 1 -50 1 -100 0 -49 0
-94 -1 -100 -1 -5 0 -39 0 -75 0 -36 1 -72 1 -80 1 -8 0 -69 0 -135 0 -66 0
-127 -1 -135 -1 -8 0 -41 1 -73 3 -32 2 -60 2 -61 1z m74 -965 c0 -4 13 -3 29
2 15 4 34 4 42 0 7 -5 20 -5 30 0 9 5 19 7 22 4 8 -8 106 -9 113 -1 3 3 19 1
35 -3 16 -5 31 -5 34 0 3 4 20 4 39 0 19 -4 40 -4 47 0 7 5 22 4 35 0 12 -5
25 -6 28 -3 8 8 112 6 126 -2 5 -3 10 -2 10 4 0 6 11 6 30 1 17 -5 30 -5 30 0
0 5 13 5 30 0 17 -5 30 -5 30 0 0 5 13 5 30 0 17 -5 30 -5 30 0 0 5 13 5 30 0
17 -5 30 -5 30 0 0 5 13 5 30 0 17 -5 30 -5 30 0 0 5 13 5 30 0 17 -5 30 -5
30 0 0 5 13 5 30 0 17 -5 30 -5 30 0 0 5 13 5 30 0 19 -5 30 -5 30 1 0 6 4 7
10 4 13 -8 108 -11 115 -3 4 3 20 2 36 -2 16 -5 31 -5 34 0 3 4 20 4 39 0 19
-4 40 -4 47 0 7 5 22 4 35 0 12 -5 25 -6 28 -3 8 8 112 6 126 -2 5 -3 10 -3
10 2 0 4 29 8 65 8 36 0 65 -3 65 -7 0 -4 13 -3 30 2 17 5 30 5 30 0 0 -5 13
-5 30 0 17 5 30 5 30 0 0 -5 13 -5 29 0 15 4 34 4 42 0 7 -5 20 -5 29 0 9 5
22 5 30 0 8 -5 21 -5 30 0 9 5 22 5 30 0 8 -5 21 -5 30 0 9 5 22 5 28 1 7 -4
35 -5 62 -1 27 4 55 3 62 -1 6 -4 19 -4 28 1 9 5 22 5 30 0 8 -5 21 -5 30 0 9
5 22 5 30 0 8 -5 21 -5 30 0 9 5 22 5 29 0 8 -4 27 -4 42 0 16 5 29 5 29 0 0
-5 13 -5 30 0 17 5 30 5 30 0 0 -5 13 -5 30 0 16 5 30 5 30 1 0 -5 15 -5 33
-2 17 4 47 4 65 0 17 -4 32 -3 32 1 0 5 12 5 27 1 16 -4 44 -4 65 -1 20 4 42
4 49 -1 7 -4 20 -4 29 1 9 5 22 5 30 0 8 -5 21 -5 30 0 9 5 22 5 30 0 8 -5 21
-5 30 0 9 5 22 5 29 0 8 -4 27 -4 42 0 16 5 29 5 29 0 0 -5 13 -5 30 0 17 5
30 5 30 0 0 -5 13 -5 30 0 17 5 30 5 30 1 0 -5 15 -5 33 -2 17 4 47 4 65 0 18
-4 32 -3 32 3 0 5 4 6 10 3 13 -8 108 -11 115 -3 4 3 20 2 36 -2 16 -5 31 -5
34 0 3 4 20 4 39 0 19 -4 40 -4 47 0 7 5 22 4 35 0 12 -5 25 -6 28 -3 8 8 112
6 126 -2 5 -3 10 -2 10 4 0 6 11 6 30 1 17 -5 30 -5 30 0 0 5 13 5 30 0 17 -5
30 -5 30 0 0 5 13 5 30 0 17 -5 30 -5 30 0 0 5 13 5 30 0 17 -5 30 -5 30 0 0
5 13 5 30 0 17 -5 30 -5 30 0 0 5 13 5 30 0 17 -5 30 -5 30 0 0 5 13 5 30 0
17 -5 30 -5 30 0 0 5 13 5 30 0 19 -5 30 -5 30 1 0 6 4 7 10 4 13 -8 108 -11
115 -3 4 3 20 2 36 -2 16 -5 31 -5 34 0 3 4 20 4 39 0 19 -4 40 -4 47 0 7 5
22 5 34 0 12 -5 27 -5 34 -1 7 5 30 5 52 1 22 -4 42 -4 44 1 3 4 19 4 35 -1
16 -5 32 -5 35 0 3 4 20 4 39 0 19 -4 40 -4 47 0 7 5 22 4 35 0 12 -5 25 -6
28 -3 8 8 112 6 126 -2 5 -3 10 -2 10 4 0 6 11 6 30 1 17 -5 30 -5 30 0 0 5
13 5 30 0 17 -5 30 -5 30 0 0 5 13 5 30 0 17 -5 30 -5 30 0 0 5 13 5 30 0 17
-5 30 -5 30 0 0 5 13 5 30 0 17 -5 30 -5 30 0 0 5 13 5 30 0 17 -5 30 -5 30 0
0 5 13 5 30 0 17 -5 30 -5 30 0 0 5 13 5 30 0 19 -5 30 -5 30 1 0 6 4 7 10 4
13 -8 108 -11 115 -3 4 3 20 2 36 -2 16 -5 31 -5 34 0 3 4 20 4 39 0 19 -4 40
-4 47 0 7 5 22 4 35 0 12 -5 24 -6 28 -3 7 7 115 7 123 0 3 -4 13 -2 22 3 10
5 23 5 31 0 8 -5 21 -5 30 0 9 5 22 5 30 0 8 -5 21 -5 30 0 9 5 22 5 29 0 8
-4 27 -4 42 0 16 5 29 5 29 0 0 -5 13 -5 30 0 17 5 30 5 30 0 0 -5 13 -5 30 0
16 5 30 5 30 1 0 -5 15 -5 33 -2 17 4 47 4 65 0 17 -4 32 -3 32 1 0 5 12 5 27
1 16 -4 44 -4 65 -1 20 4 42 4 49 -1 7 -4 20 -4 29 1 9 5 22 5 30 0 8 -5 18
-6 22 -3 13 7 141 7 166 -1 18 -6 20 -11 12 -32 -6 -14 -6 -24 0 -24 5 0 5
-12 0 -30 -5 -17 -5 -30 0 -30 5 0 5 -13 0 -28 -4 -16 -4 -35 1 -43 4 -8 4
-21 -1 -29 -4 -7 -4 -24 1 -37 5 -12 5 -23 1 -23 -4 0 -7 -22 -7 -50 0 -27 3
-50 7 -50 4 0 3 -13 -2 -30 -5 -16 -6 -30 -2 -30 8 0 7 -68 -1 -76 -3 -3 -2
-17 3 -30 6 -14 6 -24 0 -24 -5 0 -5 -12 0 -30 5 -17 5 -30 0 -30 -5 0 -5 -13
0 -30 5 -17 5 -30 0 -30 -5 0 -5 -13 0 -30 5 -17 5 -30 0 -30 -5 0 -5 -12 -1
-28 5 -15 5 -37 0 -49 -5 -13 -4 -25 1 -28 6 -4 7 -13 1 -24 -5 -9 -6 -23 -2
-29 4 -7 4 -35 1 -62 -4 -28 -3 -50 1 -50 4 0 4 -13 -1 -30 -5 -16 -6 -30 -2
-30 8 0 7 -68 -1 -76 -3 -3 -2 -17 3 -30 6 -14 6 -24 0 -24 -5 0 -5 -12 0 -30
5 -17 5 -30 0 -30 -5 0 -5 -13 0 -30 5 -17 5 -30 0 -30 -5 0 -5 -13 0 -30 5
-17 5 -30 0 -30 -5 0 -5 -12 -1 -28 5 -15 5 -37 0 -49 -5 -13 -4 -25 1 -28 6
-4 7 -13 1 -24 -5 -9 -6 -22 -3 -28 9 -14 7 -77 -2 -92 -4 -5 -2 -12 3 -16 7
-3 7 -15 1 -30 -5 -14 -5 -27 0 -30 5 -3 5 -18 0 -34 -4 -15 -4 -34 0 -42 5
-7 5 -20 0 -28 -4 -8 -4 -25 1 -38 5 -13 5 -23 1 -23 -4 0 -6 -21 -4 -47 1
-27 3 -54 2 -60 0 -7 0 -20 0 -28 0 -8 0 -22 0 -30 0 -8 0 -22 0 -30 0 -8 0
-22 0 -30 0 -8 0 -22 0 -30 0 -8 0 -22 0 -30 0 -8 0 -22 0 -30 0 -8 0 -22 0
-30 0 -8 0 -22 0 -30 0 -8 0 -22 0 -30 0 -8 0 -22 0 -30 0 -8 0 -22 0 -30 0
-8 0 -22 0 -30 0 -8 0 -22 0 -30 0 -8 0 -22 0 -30 0 -8 0 -22 0 -30 0 -8 0
-21 0 -27 0 -7 1 -29 2 -48 1 -20 -1 -43 -5 -52 -3 -10 -2 -20 3 -23 6 -3 6
-15 0 -30 -5 -14 -5 -27 0 -30 5 -3 5 -18 0 -34 -4 -15 -4 -34 0 -42 5 -7 5
-20 0 -28 -4 -8 -4 -25 1 -38 5 -13 5 -23 1 -23 -4 0 -7 -22 -7 -50 0 -27 3
-50 7 -50 4 0 3 -13 -2 -30 -5 -16 -6 -30 -2 -30 8 0 7 -68 -1 -76 -3 -3 -2
-17 3 -30 6 -14 6 -24 0 -24 -5 0 -5 -12 0 -30 5 -17 5 -30 0 -30 -5 0 -5 -13
0 -30 5 -17 5 -30 0 -30 -5 0 -5 -13 0 -30 5 -17 5 -30 0 -30 -5 0 -5 -12 -1
-28 5 -15 5 -37 0 -49 -5 -13 -4 -25 1 -28 6 -4 7 -13 1 -24 -5 -9 -6 -23 -2
-29 4 -7 4 -35 1 -62 -4 -28 -3 -50 1 -50 4 0 4 -13 -1 -30 -5 -16 -6 -30 -2
-30 8 0 7 -68 -1 -76 -3 -3 -2 -17 3 -30 6 -14 6 -24 0 -24 -5 0 -5 -12 0 -30
5 -17 5 -30 0 -30 -5 0 -5 -13 0 -30 5 -17 5 -30 0 -30 -5 0 -5 -13 0 -30 5
-17 5 -30 0 -30 -5 0 -5 -12 -1 -28 5 -15 5 -37 0 -49 -5 -13 -4 -25 1 -28 6
-4 7 -13 1 -24 -5 -9 -6 -22 -3 -28 9 -14 7 -77 -2 -92 -4 -5 -2 -12 3 -16 7
-3 7 -15 1 -30 -5 -14 -5 -27 0 -30 5 -3 5 -18 0 -34 -4 -15 -4 -34 0 -42 5
-7 5 -20 0 -28 -5 -9 -4 -23 1 -33 5 -10 5 -19 0 -22 -5 -3 -7 -16 -4 -29 3
-12 2 -19 -2 -15 -4 4 -16 3 -26 -2 -11 -7 -20 -7 -24 0 -3 6 -15 6 -29 0 -13
-5 -26 -7 -28 -4 -9 8 -88 10 -88 2 0 -5 -8 -5 -17 1 -11 6 -24 6 -35 0 -10
-5 -18 -6 -18 -1 0 8 -63 7 -87 -2 -7 -3 -13 -1 -13 4 0 5 -12 5 -28 1 -15 -5
-36 -5 -47 -1 -11 4 -25 3 -32 -2 -7 -5 -14 -5 -17 1 -4 5 -18 6 -34 2 -15 -5
-36 -5 -47 -1 -11 4 -28 3 -37 -2 -10 -5 -18 -5 -18 -1 0 4 -11 8 -25 8 -14 0
-25 -4 -25 -8 0 -4 -8 -4 -17 2 -11 6 -24 6 -35 0 -10 -5 -18 -6 -18 -2 0 4
-20 8 -45 8 -25 0 -45 -4 -45 -8 0 -4 -8 -4 -17 2 -11 6 -24 6 -35 0 -10 -5
-18 -6 -18 -1 0 9 -53 8 -69 -2 -5 -4 -12 -2 -16 3 -3 6 -15 7 -28 2 -12 -5
-34 -5 -49 0 -16 4 -28 4 -28 -1 0 -5 -13 -5 -30 0 -19 5 -30 5 -30 -1 0 -6
-6 -6 -18 0 -11 6 -24 6 -35 0 -9 -6 -17 -6 -17 -2 0 4 -11 8 -25 8 -14 0 -25
-4 -25 -8 0 -4 -8 -4 -17 2 -11 6 -24 6 -35 0 -10 -5 -18 -6 -18 -2 0 4 -11 8
-25 8 -14 0 -25 -4 -25 -8 0 -4 -8 -4 -17 2 -11 6 -24 6 -35 0 -10 -5 -18 -6
-18 -1 0 9 -53 8 -69 -3 -6 -3 -11 -3 -11 2 0 4 -22 8 -50 8 -27 0 -50 -4 -50
-8 0 -4 -8 -4 -17 2 -10 5 -26 5 -39 1 -12 -5 -24 -7 -27 -4 -8 9 -77 10 -77
2 0 -5 -8 -4 -19 1 -10 6 -21 8 -24 5 -7 -8 -95 -9 -102 -2 -4 3 -19 3 -33 -1
-15 -5 -36 -5 -47 -1 -11 4 -28 4 -37 -1 -10 -6 -19 -5 -23 1 -4 6 -12 7 -18
3 -6 -4 -27 -8 -47 -10 -46 -4 -137 -40 -177 -70 -17 -12 -34 -23 -37 -23 -8
0 -57 -51 -92 -98 -59 -76 -93 -178 -91 -269 0 -24 -2 -45 -6 -49 -3 -3 -2
-17 3 -30 6 -14 6 -24 0 -24 -5 0 -5 -12 0 -30 5 -17 5 -30 0 -30 -5 0 -5 -13
0 -30 5 -17 5 -30 0 -30 -5 0 -5 -13 0 -30 5 -17 5 -30 0 -30 -5 0 -5 -12 -1
-28 5 -15 5 -37 0 -49 -5 -13 -4 -25 1 -28 6 -4 7 -13 1 -24 -5 -9 -6 -22 -3
-28 9 -14 7 -77 -2 -92 -4 -5 -2 -12 3 -16 7 -3 7 -15 1 -30 -5 -14 -5 -27 0
-30 5 -3 5 -18 0 -34 -4 -15 -4 -34 0 -42 5 -7 5 -20 0 -28 -4 -8 -4 -25 1
-38 5 -13 5 -23 1 -23 -4 0 -6 -21 -4 -47 1 -27 3 -54 2 -60 0 -7 0 -20 0 -28
0 -8 0 -22 0 -30 0 -8 0 -22 0 -30 0 -8 0 -22 0 -30 0 -8 0 -22 0 -30 0 -8 0
-22 0 -30 0 -8 0 -22 0 -30 0 -8 0 -22 0 -30 0 -8 0 -22 0 -30 0 -8 0 -22 0
-30 0 -8 0 -22 0 -30 0 -8 0 -22 0 -30 0 -8 0 -22 0 -30 0 -8 0 -22 0 -30 0
-8 0 -22 0 -30 0 -8 0 -22 0 -30 0 -8 0 -21 0 -27 0 -7 1 -29 2 -48 1 -20 -1
-43 -5 -52 -3 -10 -2 -20 3 -23 6 -3 6 -15 0 -30 -5 -14 -5 -27 0 -30 5 -3 5
-18 0 -34 -4 -15 -4 -34 0 -42 5 -7 5 -20 0 -28 -4 -8 -4 -25 1 -38 5 -13 5
-23 1 -23 -4 0 -7 -22 -7 -50 0 -27 3 -50 7 -50 4 0 3 -13 -2 -30 -5 -16 -6
-30 -2 -30 8 0 7 -68 -1 -76 -3 -3 -2 -17 3 -30 6 -14 6 -24 0 -24 -5 0 -5
-13 0 -31 11 -36 5 -39 -68 -36 -28 1 -52 -1 -52 -5 0 -3 -12 -3 -27 1 -16 4
-43 4 -60 0 -18 -4 -33 -4 -33 0 0 3 -21 5 -47 4 -88 -5 -135 -5 -140 0 -2 3
-18 1 -34 -3 -16 -5 -29 -6 -29 -2 0 4 -53 6 -117 4 -145 -3 -127 -3 -193 -2
-85 0 -89 0 -102 1 -7 0 -49 1 -93 0 -44 0 -88 0 -97 0 -10 0 -39 -1 -64 -1
-25 -1 -48 1 -51 4 -3 2 -15 1 -28 -4 -13 -5 -26 -6 -29 -3 -5 6 -66 7 -83 3
-5 -1 -12 -1 -18 0 -5 1 -30 1 -55 1 -57 -1 -70 -1 -122 0 -24 0 -72 0 -108 0
-36 0 -73 0 -82 0 -10 0 -39 -1 -64 -1 -25 -1 -48 1 -51 4 -3 2 -15 1 -28 -4
-13 -5 -26 -6 -29 -3 -5 6 -66 7 -83 3 -5 -1 -12 -1 -18 0 -5 1 -30 1 -55 1
-58 -1 -66 -1 -187 0 -57 0 -107 -2 -113 -6 -5 -3 -10 -3 -10 2 0 7 -83 9
-100 2 -3 -1 -9 0 -15 1 -5 1 -34 2 -62 1 -66 -2 -69 -2 -118 0 -22 0 -44 0
-50 -1 -5 -1 -14 -1 -20 0 -8 1 -131 1 -235 0 -8 -1 -40 -1 -70 0 -30 0 -64 0
-75 0 -11 -1 -59 0 -107 0 -48 1 -92 -1 -98 -5 -5 -3 -10 -3 -10 2 0 7 -65 9
-95 3 -6 -2 -14 -1 -20 0 -10 2 -37 2 -133 -1 -24 0 -46 2 -49 4 -2 3 -18 1
-34 -3 -16 -5 -29 -6 -29 -2 0 4 -53 6 -117 4 -145 -3 -127 -3 -193 -2 -30 0
-64 0 -75 0 -11 -1 -59 0 -107 0 -48 1 -92 -1 -98 -5 -5 -3 -10 -3 -10 2 0 9
-87 9 -96 0 -3 -3 -13 -3 -21 0 -8 3 -27 6 -42 7 -18 1 -26 6 -25 19 1 9 -2
17 -6 17 -5 0 -5 13 0 29 4 15 4 34 0 42 -5 7 -5 20 0 29 5 9 5 22 0 30 -5 8
-5 21 0 30 5 9 5 22 0 30 -5 8 -5 21 0 30 5 9 5 22 0 30 -5 8 -5 21 0 30 5 9
5 22 0 30 -5 8 -5 21 0 30 5 9 5 22 0 30 -5 8 -5 21 0 30 5 9 5 22 0 30 -5 8
-5 21 0 30 5 9 5 22 0 30 -5 8 -5 21 0 30 5 9 5 21 2 27 -9 14 -7 77 2 92 4 5
2 12 -3 16 -7 3 -7 15 -1 30 5 14 5 27 0 30 -5 3 -5 18 0 34 4 15 4 34 0 42
-5 7 -5 20 0 28 4 8 4 25 -1 38 -5 13 -5 23 -1 23 8 0 7 84 -1 97 -3 5 -2 15
3 23 5 8 5 21 0 30 -5 9 -5 22 0 29 4 8 4 27 0 42 -5 16 -5 29 0 29 5 0 5 13
0 30 -5 17 -5 30 0 30 5 0 5 13 0 30 -5 17 -5 30 0 30 5 0 5 13 0 30 -5 17 -5
30 0 30 5 0 5 13 0 30 -5 17 -6 30 -2 30 4 0 7 16 7 35 0 19 -3 35 -7 35 -4 0
-3 14 2 30 5 17 5 30 1 30 -4 0 -5 22 -1 50 3 27 3 55 -1 62 -4 7 -4 19 1 27
4 9 4 23 0 31 -5 9 -5 22 0 29 4 8 4 27 0 42 -5 16 -5 29 0 29 5 0 5 13 0 30
-5 17 -5 30 0 30 5 0 5 13 0 30 -5 17 -5 30 0 30 5 0 5 13 0 30 -5 17 -5 30 0
30 5 0 5 13 0 30 -5 17 -6 30 -2 30 4 0 7 16 7 35 0 19 -3 35 -7 35 -4 0 -3
14 2 30 5 17 5 30 1 30 -4 0 -4 27 -1 60 3 33 3 60 -1 60 -4 0 -4 14 1 30 5
17 6 30 2 30 -8 0 -7 68 1 76 3 3 2 17 -3 30 -6 14 -6 24 0 24 5 0 5 12 0 30
-5 17 -5 30 0 30 5 0 5 13 0 30 -5 17 -5 30 0 30 5 0 5 13 0 30 -5 17 -5 30 0
30 5 0 5 12 1 28 -5 15 -5 37 0 49 5 13 4 25 -1 28 -6 4 -7 13 -1 24 5 9 6 22
3 28 -9 14 -7 77 2 92 4 5 2 12 -3 16 -7 3 -7 15 -1 30 5 14 5 27 0 30 -5 3
-5 18 0 34 4 15 4 34 0 42 -5 7 -5 20 0 28 4 8 4 25 -1 38 -5 13 -5 23 -1 23
4 0 6 21 4 47 -1 27 -3 54 -2 61 0 6 0 19 0 27 0 8 0 22 0 30 0 8 0 22 0 30 0
8 0 22 0 30 0 8 0 22 0 30 0 8 0 22 0 30 0 8 0 22 0 30 0 8 0 22 0 30 0 8 0
22 0 30 0 8 0 22 0 30 0 8 0 22 0 30 0 8 0 22 0 30 0 8 0 22 0 30 0 8 0 22 0
30 0 8 0 22 0 30 0 8 0 22 0 30 0 8 0 21 0 28 0 6 -1 28 -2 47 -1 20 1 43 5
52 3 10 2 20 -3 23 -6 3 -6 15 0 30 5 14 5 27 0 30 -5 3 -5 18 0 34 4 15 4 34
0 42 -5 7 -5 20 0 28 4 8 4 25 -1 38 -5 13 -5 23 -1 23 4 0 7 23 7 50 0 28 -3
50 -7 50 -4 0 -3 14 2 30 5 17 6 30 2 30 -8 0 -7 68 1 76 3 3 2 17 -3 30 -6
14 -6 24 0 24 5 0 5 12 0 30 -5 17 -5 30 0 30 5 0 5 13 0 30 -5 17 -5 30 0 30
5 0 5 13 0 30 -5 17 -5 30 0 30 5 0 5 12 1 28 -5 15 -5 37 0 49 5 13 4 25 -1
28 -6 4 -7 13 -1 24 5 9 6 23 2 30 -5 7 -5 30 -1 51 4 21 4 44 -1 51 -4 7 -4
20 1 28 4 9 4 23 0 31 -5 9 -5 22 0 29 4 8 4 27 0 42 -5 16 -5 29 0 29 5 0 5
13 0 30 -5 17 -5 30 0 30 5 0 5 13 0 30 -5 17 -5 30 0 30 5 0 5 13 0 30 -5 17
-5 30 0 30 5 0 5 13 0 30 -5 17 -6 30 -2 30 4 0 7 16 7 35 0 19 -3 35 -7 35
-4 0 -3 14 2 30 5 17 5 30 1 30 -4 0 -5 22 -1 50 3 27 3 55 -1 62 -4 7 -4 19
1 27 4 9 4 23 0 31 -5 9 -5 22 0 29 4 8 4 27 0 42 -5 16 -5 29 0 29 5 0 5 13
0 30 -5 17 -5 30 0 30 5 0 5 13 0 30 -5 17 -5 30 0 30 5 0 5 13 0 30 -5 17 -5
30 0 30 5 0 5 13 0 30 -5 17 -6 30 -2 30 4 0 7 16 7 35 0 19 -3 35 -7 35 -4 0
-3 14 2 30 5 17 6 30 2 30 -8 0 -6 85 2 99 4 5 2 12 -3 16 -7 3 -7 15 -1 30 5
14 5 27 0 30 -5 3 -5 18 0 34 4 15 4 34 0 42 -5 7 -5 20 0 28 4 8 4 25 -1 38
-5 13 -5 23 -1 23 4 0 6 21 4 47 -1 27 -3 54 -2 61 0 6 0 19 0 27 0 8 0 22 0
30 0 8 0 22 0 30 0 8 0 22 0 30 0 8 0 22 0 30 0 8 0 22 0 30 0 8 0 22 0 30 0
8 0 22 0 30 0 8 0 22 0 30 0 8 0 22 0 30 0 8 0 22 0 30 0 8 0 22 0 30 0 8 0
22 0 30 0 8 0 22 0 30 0 8 0 21 0 28 0 6 0 30 -1 52 -2 85 -6 80 66 80 36 0
65 -3 65 -7z m5370 -5440 c0 -4 11 -3 25 2 16 6 25 6 25 0 0 -6 9 -6 25 0 15
6 26 6 30 -1 4 -6 13 -6 23 0 9 5 26 5 40 0 13 -5 21 -6 19 -1 -3 4 8 7 24 7
16 0 29 -3 29 -7 0 -4 11 -3 25 2 15 6 26 6 30 -1 4 -6 13 -6 23 0 10 6 23 6
34 0 10 -6 19 -5 23 1 4 6 15 6 31 0 14 -6 23 -7 21 -2 -3 4 8 7 24 7 16 0 29
-3 29 -7 0 -4 11 -3 25 2 13 5 27 6 29 1 3 -4 26 -5 51 -1 26 4 48 3 51 -2 4
-6 10 -6 16 0 7 7 19 7 34 2 13 -5 24 -6 24 -2 0 8 52 8 66 -1 6 -3 16 -2 24
3 8 5 21 5 31 -1 11 -6 20 -5 24 1 4 6 15 6 31 0 14 -6 23 -7 21 -2 -3 4 8 7
24 7 16 0 29 -3 29 -7 0 -4 11 -3 25 2 15 6 26 6 30 -1 4 -6 13 -6 23 0 10 6
23 6 34 0 10 -6 19 -5 23 1 3 6 15 6 30 0 15 -6 27 -6 30 0 3 6 15 6 30 0 16
-6 25 -6 25 1 0 6 7 6 19 -1 13 -6 22 -7 26 0 3 5 15 6 29 0 12 -4 29 -4 36 0
8 5 22 4 31 -1 11 -6 20 -5 24 1 4 7 12 7 25 0 12 -6 20 -6 22 0 2 6 9 6 17 0
11 -6 -163 -186 -741 -764 -653 -652 -756 -752 -760 -731 -3 12 -1 30 4 39 6
10 5 16 -2 16 -8 0 -8 6 0 20 8 14 8 20 0 20 -8 0 -8 6 0 20 8 14 8 20 0 20
-8 0 -8 6 0 20 8 14 8 20 0 20 -7 0 -8 6 -1 18 13 25 13 25 2 55 -6 16 -7 27
-1 27 6 0 6 9 0 25 -6 15 -6 26 1 30 6 4 6 13 0 23 -6 10 -6 23 0 34 6 12 6
18 0 18 -6 0 -6 11 -1 30 5 19 5 30 -1 30 -6 0 -6 7 1 19 7 13 7 22 0 26 -7 4
-7 12 0 25 7 13 7 21 0 25 -6 4 -7 12 -1 23 5 9 5 26 0 39 -5 13 -4 25 1 28 7
4 6 13 0 25 -7 13 -7 21 0 25 7 4 7 12 0 25 -6 12 -7 21 0 25 6 3 6 15 0 30
-6 15 -6 27 0 30 6 4 7 13 1 23 -6 11 -6 24 0 35 7 11 7 17 0 17 -6 0 -6 11
-1 30 5 19 5 30 -1 30 -6 0 -6 7 1 19 7 13 7 22 0 26 -7 4 -7 12 0 25 7 13 7
21 0 25 -6 4 -7 12 -1 23 5 9 5 26 0 39 -5 13 -4 25 1 28 7 4 6 13 0 25 -7 13
-7 21 0 25 7 4 7 12 0 25 -6 12 -7 21 0 25 6 3 6 15 0 30 -6 15 -6 27 1 30 6
4 6 13 0 23 -6 10 -6 23 0 34 6 12 6 18 0 18 -6 0 -6 11 -1 30 5 19 5 30 -1
30 -6 0 -6 7 1 19 6 13 7 22 0 26 -18 11 0 30 30 30 17 0 30 -3 30 -7z"/>
</g>
</svg>
