<?xml version="1.0" encoding="UTF-8" standalone="no"?>
<svg
   xmlns="http://www.w3.org/2000/svg"
   version="1.1"
   id="svg3586"
   viewBox="0 0 110.84811 148.1013"
   height="41.797478mm"
   width="31.2838mm">
  <defs
     id="defs3588" />

  <g
     transform="translate(0,-904.2609)"
     id="layer1">
    <path
       id="path186"
       style="fill:#0032fa;fill-opacity:1;fill-rule:nonzero;stroke:none"
       d="m 2.7847464,958.38052 c -0.39625,0.4125 -0.33,1.28375 0.21375,1.49125 0.494999,0.19375 0.959999,0.0437 1.226249,-0.3475 0.2125,-0.3225 0.3775,-1.1 -0.0588,-1.38625 -0.35,-0.22125 -0.835,-0.34 -1.381249,0.2425 m 0.786249,-4.6325 c -0.377499,-0.63375 -1.072499,-1.2 -2.417499,-0.6975 -0.98125012,0.36375 -1.54375012,1.8175 -0.8362501,2.58 0.6475,0.69625 1.5250001,0.8275 2.2562501,0.40375 0.6025,-0.35125 1.479999,-1.47125 0.997499,-2.28625 m 8.6637506,-8.83125 c 0,-1.535 -0.6225,-3.29625 -3.5612496,-3.8275 -2.132501,-0.38625 -4.715001,1.6 -4.252501,3.72375 0.42125,1.935 1.83125,3.1 3.6025,3.13 1.4599996,0.0238 4.2112506,-1.04625 4.2112506,-3.02625 m 96.824984,8.96 c -0.72875,0.175 -1.505,0.595 -1.5125,1.66 0,0.7775 1.14875,1.43875 2.11626,1.0375 0.86875,-0.3625 1.30125,-0.9775 1.1575,-1.58875 -0.10625,-0.50375 -0.83375,-1.33 -1.76126,-1.10875 m -3.9925,4.11 c -1.4725,-0.26875 -3.26,1.11375 -2.9425,2.5875 0.285,1.3425 1.27125,2.155 2.5,2.17375 1.0175,0.0162 2.9225,-0.7275 2.9225,-2.1025 0,-1.06875 -0.44,-2.28875 -2.48,-2.65875 m -2.5975,-1.92 c -0.30125,-0.7325 -1.01375,-1.04625 -2.37998,-1.04625 l -0.25251,0.004 c -2.353752,0 -2.847502,-0.745 -3.166252,-1.5075 -0.45875,-1.1 -0.4,-4.93875 0.6575,-6.3625 1.53,-2.0625 2.171252,-2.105 3.563742,-2.19 0.1425,-0.006 0.2825,-0.0175 0.44125,-0.025 1.88375,-0.14 3.135,-0.7725 3.1,-1.57875 -0.0225,-0.66375 -0.50125,-1.435 -1.755,-1.435 -0.20875,0 -0.445,0.0225 -0.685,0.0687 -0.3,0.0613 -0.69125,0.185 -1.10875,0.31875 -0.84623,0.27375 -1.813742,0.585 -2.719992,0.585 -1.03875,0 -1.79,-0.39625 -2.26625,-1.1825 -0.85875,-1.42375 -0.68875,-2.4475 -0.4625,-3.30125 0.29375,-1.10125 1.8025,-1.94625 2.28875,-2.2225 0.355,-0.1975 0.59125,-0.4825 0.67375,-0.79625 0.0688,-0.23875 0.025,-0.42375 -0.0325,-0.52625 -0.16375,-0.26625 -0.55875,-0.71125 -1.40875,-0.71125 -0.2975,0 -0.61,0.0512 -0.9525,0.15875 l -0.1175,0.045 c -0.4575,0.145 -1.14875,0.36875 -1.9,0.36875 -1.4625,0 -2.51875,-0.8325 -3.12125,-2.48 -0.555,-1.48125 1.12875,-2.45375 2.35625,-3.1625 0.43375,-0.2525 0.85,-0.495 1.0025,-0.6775 0.59375,-0.67375 0.8275,-1.1775 0.80125,-1.735 -0.0238,-0.71125 -0.14125,-0.90625 -0.645,-1.16125 -0.03,-0.0137 -0.19125,-0.0412 -0.5375,-0.0412 -0.33,0 -0.7225,0.18625 -1.2825,0.59375 -0.29,0.2125 -0.4975,0.4725 -0.71375,0.75 -0.4275,0.545 -0.91125,1.165 -2.095,1.3875 -0.19125,0.0362 -0.44375,0.0775 -0.79125,0.0775 -0.33999,0 -0.70749,-0.0413 -1.07499,-0.12625 -1.44,-0.325 -3.23875,-0.7275 -4.38875,-2.03875 -0.96,-1.10125 -1.3925,-2.4775 -1.2175,-3.865 0.12125,-0.9575 0.8,-1.64125 1.44,-2.29625 0.9275,-0.9325 1.3075,-1.41875 1.07,-2.1675 -0.2075,-0.7 -0.92625,-1.22875 -1.66125,-1.22875 -0.4475,0 -0.855,0.1825 -1.23,0.535 -0.29,0.26875 -0.33375,1.0725 -0.37375,1.7775 -0.07,1.19125 -0.15125,2.5475 -1.213752,3.38875 -0.50625,0.39875 -1.13625,0.605 -1.865,0.605 -1.07375,0 -2.09875,-0.56375 -3.18125,-1.1575 -0.36375,-0.18875 -0.705,-0.3825 -1.0675,-0.55375 l -0.055,-0.0275 c -0.1775,-0.085 -0.34375,-0.17 -0.505,-0.24875 -1.33875,-0.63625 -2.91,-1.1 -4.02375,-1.18125 -1.02,-0.0725 -1.84375,-0.12875 -2.17,-0.8875 -0.3175,-0.73375 0.0662,-2.06125 0.8875,-3.08625 1.51,-1.87125 1.65875,-2.81375 0.63625,-3.73 -0.38125,-0.34875 -0.825,-0.52375 -1.32875,-0.52375 -0.68,0 -1.4575,0.3475 -2.1675,0.97625 -0.68,0.60375 -0.56,1.5775 -0.4175,2.7 0.135,1.14875 0.2875,2.3325 -0.51375,3.23625 -0.59875,0.67625 -1.5675,0.995 -3.045,0.995 -0.3425,0 -0.715,-0.0175 -1.10125,-0.0488 -0.98,-0.0825 -1.66,-0.40125 -2.07875,-0.9675 -0.645,-0.88875 -0.38125,-2.0375 -0.12875,-3.14875 0.1725,-0.73 0.35125,-1.48625 0.2125,-2.0225 -0.255,-1.0775 -1.19625,-1.6375 -1.98625,-1.6375 -0.84375,0 -1.27,0.21125 -1.57875,1.48 l -0.015,0.0375 c -0.165,0.52625 0.21625,1.535 0.48875,2.275 0.0562,0.15625 0.11375,0.30125 0.1675,0.43375 0.0425,0.1575 0.1125,0.30875 0.165,0.455 0.285,0.705 0.55375,1.37125 0.0838,2.2475 -0.23125,0.43125 -1.02,0.70375 -1.7625,0.9225 l -0.05,0.01 c -0.13875,0.0263 -0.3425,0.08 -0.585,0.14625 -0.7225,0.1925 -1.29875,0.34625 -1.555,0.34625 -2.4925,0 -2.56125,-1.2975 -2.64625,-2.7925 -0.004,-0.26125 -0.0213,-0.5225 -0.05,-0.79875 -0.21,-2.16625 -0.6525,-2.96625 -0.985,-3.2525 -0.82,-0.69125 -1.28375,-0.97875 -2.10125,-0.97875 -0.83375,0 -1.58375,0.32125 -2.10375,0.9025 -0.64,0.7075 -0.9125,1.7525 -0.77625,3.015 0.12625,1.20875 0.77625,1.89875 1.40125,2.5675 0.55,0.58 1.065,1.12875 1.14625,1.925 0.20625,1.85625 -1.72625,2.53375 -3.275,3.08375 -0.84125,0.29625 -1.71875,0.605 -2.32625,1.04375 -1.41125,1.00375 -2.4825,2.07375 -3.3275,2.9375 -1.12,1.125 -1.86,1.86625 -2.77375,1.86625 -1.13125,0 -1.685,-1.09375 -2.07625,-2.17375 -0.285,-0.80625 -0.905,-1.765 -2.225,-1.765 -0.345,0 -0.74375,0.0637 -1.165,0.20125 -0.57125,0.185 -1.07625,0.7475 -1.315,1.4675 -0.24875,0.74875 -0.155,1.51 0.24625,2.08625 0.2425,0.3375 0.7375,0.5725 1.24375,0.82625 1.015,0.48 2.545,1.21625 2.31,3.26 -0.2,1.9075 -2.51875,3.69875 -4.1725,3.69875 -0.62125,0 -1.12625,-0.23375 -1.475,-0.6775 -1.11375,-1.4375 -1.5725,-1.8875 -2.22875,-1.8875 -0.1875,0 -0.40125,0.0375 -0.6625,0.10875 -0.645,0.18125 -1.11375,0.5425 -1.305,1.00375 -0.20625,0.49 -0.12625,1.115 0.23875,1.81125 0.16875,0.30625 0.5175,0.38375 1.2975,0.48125 0.93375,0.1225 2.34625,0.30125 2.7875,1.94375 0.185,0.71375 0.14375,1.28625 -0.1375,1.76375 -0.43625,0.7375 -1.2675,0.945 -2.01625,1.12375 -1.19,0.2925 -1.675,0.5075 -1.7625,1.45 -0.015,0.15 0.36125,0.3375 0.96625,0.5975 0.78875,0.34 1.8725,0.80125 1.91625,1.97875 0.0575,1.80875 -1.41625,2.36625 -2.2925,2.7025 -0.7,0.26125 -1.0325,0.41875 -1.1025,0.695 -0.0687,0.19875 -0.0788,0.255 0.8025,0.62 0.7075,0.3 1.67,0.70375 1.98875,1.70375 0.1825,0.57 0.0463,1.19125 -0.36375,1.75875 -0.68875,0.94375 -2.40375,1.9525 -5.1575,1.9525 -0.4975,0 -1.03,-0.035 -1.5475,-0.10625 l -0.555,-0.07 c -1.605,-0.20875 -3.1,-0.41125 -4.465,-0.41125 -1.767501,0 -3.1037496,0.335 -4.3125006,1.0875 -0.83625,0.52625 -1.2975,1.115 -1.30125,1.4025 -0.006,0.11875 0.1525,0.25125 0.2775,0.33875 0.0312,0.0213 0.32625,0.2025 1.40125,0.2025 1.040001,0 2.2662496,-0.1775 3.0550006,-0.3375 0.43875,-0.0875 0.88625,-0.18625 1.34625,-0.28 2.03375,-0.4375 4.155,-0.88875 6.265,-0.88875 1.17125,0 2.23125,0.14125 3.20375,0.42875 2.305,0.60375 1.68125,3.00375 1.3975,4.1525 -0.0788,0.28125 -0.17125,0.6275 -0.17125,0.765 -0.0138,2.18125 1.36,2.74 2.94375,3.38875 1.125,0.465 2.18625,0.89125 2.5925,1.9575 0.28125,0.71875 0.185,1.5575 -0.295,2.57 -0.285,0.59 -0.91625,0.98625 -1.59375,1.40125 -0.51875,0.32375 -1.3125,0.8125 -1.37625,1.18625 -0.0225,0.17125 0.0963,0.42625 0.3525,0.72125 0.10625,0.14125 0.3325,0.21125 0.6675,0.21125 0.62125,0 1.42375,-0.2325 2.14,-0.4375 0.545,-0.15375 1.0675,-0.30625 1.51,-0.35 0.32375,-0.03 0.65125,-0.0525 0.94125,-0.0525 1.3275,0 2.15125,0.41125 2.42,1.2125 0.57875,1.79 -2.5175,4.59 -5.21625,6.62375 -0.555,0.4175 -1.50125,0.96625 -2.7075,1.6625 -2.52,1.44874 -8.39625,4.85374 -7.8825,6.52999 0.31625,1.0175 0.8475,1.14625 1.26625,1.14625 1.52125,0 3.98,-1.84625 5.725,-4.29125 1.76625,-2.4575 2.77875,-3.36999 5.34875,-5.22999 1.02625,-0.75 2.45125,-1.7775 4.08875,-1.7775 0.73875,0 1.47,0.21125 2.1575,0.62875 1.16125,0.70875 1.78,1.6525 1.84375,2.80875 0.16625,3.04124 -3.76375,6.16624 -4.21375,6.51249 -1.79875,1.39375 -2.8625,3.3125 -2.6425,4.77375 0.155,1.065 0.97,1.22375 1.44625,1.22375 0.50375,0 1.02625,-0.17625 1.43375,-0.495 1.02125,-0.79 1.58625,-2.1925 2.195,-3.68 0.9825,-2.435 2.105,-5.1975 5.62,-5.3425 0.0662,-0.004 0.135,-0.006 0.1975,-0.006 4.55,0 5.065,5.75375 5.40125,9.555 0.0462,0.57625 0.1075,1.17875 0.1675,1.82875 0.335,3.53749 0.7075,7.55869 0.56625,10.84749 -0.13,3.325 -0.7175,8.0875 -2.69875,11.9113 -0.37,0.69 -0.77625,1.3837 -1.2075,2.1162 -1.6375,2.7363 -3.32625,5.575 -2.06875,8.2338 0.27625,0.5837 0.575,1.0062 0.8525,1.425 0.60125,0.845 1.17,1.6412 1.2875,3.3237 0.13375,1.745 -0.22,3.3738 -0.57,4.9475 -0.11625,0.5425 -0.24,1.11 -0.345,1.665 -0.92375,5.1775 -0.56875,8.5763 1.0625,10.1088 0.7625,0.7075 1.56,1.0637 2.37875,1.0637 2.1475,0 4.2725,-2.3575 5.44875,-4.37 3.24125,-5.5837 1.83625,-14.6525 0.79375,-21.2812 l -0.005,-0.022 c -0.0837,-0.5813 -0.1675,-1.1488 -0.26125,-1.6963 -1.34,-8.8862 -1.67625,-16.5825 -1.06625,-24.2063 0.42875,-5.34744 0.68,-7.36369 1.97875,-10.82119 0.6025,-1.6275 1.47875,-3.28625 3.3275,-3.28625 0.36125,0 0.7775,0.0637 1.1975,0.19625 0.93125,0.28125 1.055,0.9175 1.17875,1.5925 0.155,0.815 0.34625,1.83 2.04,2.80625 3.98125,2.30125 4.74125,3.9825 3.8975,8.56746 -0.77375,4.10498 -2.18625,11.74248 0.3125,15.12508 0.88375,1.195 1.9375,1.4487 2.67375,1.4487 0.0575,0 0.1275,-0.01 0.18875,-0.01 0.6725,0 1.19375,-0.51 1.58125,-0.9637 1.735,-2.0676 0.71375,-16.44129 -0.0175,-20.75879 -0.27,-1.56 -0.49875,-2.9175 -0.5475,-3.83625 -0.16375,-2.8925 0.71875,-3.58125 1.7475,-4.37875 0.3125,-0.24375 0.63375,-0.4875 0.94,-0.82 0.31,-0.3175 0.5875,-0.98375 0.87125,-1.6875 0.5625,-1.35124 1.19625,-2.88124 2.38875,-2.88124 0.435,0 0.93875,0.1625 1.2725,0.31625 1.56875,0.745 1.82875,1.91249 2.0875,3.03874 0.1425,0.62875 0.285,1.2275 0.64125,1.735 0.33875,0.47375 0.7575,0.65125 1.2,0.84125 0.858752,0.365 1.741252,0.74625 1.687502,3.20125 -0.04,1.29125 -0.1225,2.4925 -0.2125,3.55625 -0.185,2.44875 -0.335,4.38625 0.40125,5.31375 0.3925,0.4925 0.93625,0.73246 1.66875,0.73246 0.14,0 0.2825,-0.01 0.4375,-0.029 0.78375,-0.0875 1.32875,-0.43121 1.69875,-1.05371 1.41625,-2.4675 -0.39875,-8.40625 -1.5,-10.8925 -1.7025,-3.87375 -2.17375,-8.44749 -1.02875,-10.19749 0.355,-0.5525 0.8775,-0.85375 1.46875,-0.85375 1.2375,0 2.56,1.37625 4.02624,4.21 0.15125,0.28875 0.42125,0.63125 0.82875,0.63125 0.43375,0 0.87875,-0.3425 1.09,-0.82625 0.3,-0.71375 0.03,-1.56 -0.73125,-2.34625 -1.52749,-1.57375 -2.21874,-2.90375 -2.16124,-4.18375 0.0337,-1.00625 0.55,-1.93875 1.49999,-2.77125 l 0.0263,-0.0225 c 0.48375,-0.37625 0.98625,-0.5725 1.50375,-0.5725 0.92,0 1.6175,0.5775 2.2875,1.14 0.58125,0.48375 1.13125,0.93875 1.705,0.93875 0.21875,0 0.42875,-0.06 0.67375,-0.18125 0.60625,-0.3075 1.21,-1.115 1.15625,-1.89 -0.0762,-0.92375 -1.1025,-1.7325 -2.87,-2.27 -0.46375,-0.14375 -0.77875,-0.4125 -0.9225,-0.79875 -0.26375,-0.68 0.11875,-1.34375 0.60875,-2.17875 0.75625,-1.29125 1.9025,-3.2425 1.5725,-6.16 -0.1075,-0.825 0.0325,-1.4375 0.415,-1.86 l 0.0825,-0.0987 c 0.30375,-0.3475 0.71375,-0.8275 1.3225,-0.8275 0.595,0 1.455,0.17125 1.915,0.27125 0.303752,0.07 0.575002,0.2025 0.851262,0.33375 0.32123,0.16125 0.61748,0.30625 0.91748,0.30625 0.645,0 1.04625,-0.16375 1.3525,-0.5475 0.37125,-0.4975 0.28625,-0.69125 0.1525,-1.02 m -62.443734,-44.693 c 1.20375,-0.96125 2.18875,-2.555 0.77625,-5.175 -1.01375,-1.9075 -4.18125,-2.69625 -5.55875,-1.01125 -1.25875,1.5275 -1.29,3.3625 -0.21,4.76125 0.88625,1.16125 3.4425,2.65 4.9925,1.425 m 56.853742,9.65 c 0.49125,0.19375 0.96125,0.04 1.22625,-0.34875 0.21625,-0.32 0.38125,-1.0975 -0.0663,-1.385 -0.34375,-0.22375 -0.82625,-0.33875 -1.36875,0.24125 -0.4,0.41625 -0.335,1.28375 0.20875,1.4925 m -5.105,1.8225 c 0.88125,-0.36375 1.30875,-0.98375 1.18125,-1.59125 -0.11375,-0.50875 -0.8425,-1.33625 -1.77875,-1.11125 -0.72125,0.17625 -1.49375,0.595 -1.5025,1.65875 0,0.77625 1.15125,1.44 2.1,1.04375 m 1.7475,-5.005 c 0.84625,-0.48625 2.0525,-2.025 1.4,-3.145 -0.525,-0.865 -1.47375,-1.6425 -3.32875,-0.94625 -1.3475,0.50625 -2.1475,2.51125 -1.17,3.55 0.8825,0.95125 2.08,1.12125 3.09875,0.54125 m -74.242492,11.39755 c 0.69875,-0.4 1.645,-1.79 0.9875,-2.90625 -0.51875,-0.8675 -1.415,-1.67875 -2.98875,-1.1425 -1.1425,0.38625 -1.68625,2.24125 -0.76875,3.305 0.855,0.9725 1.92,1.225 2.77,0.74375 m -1.8525,4.88125 c 0.93625,-0.0575 1.55625,-0.5 1.63,-1.11875 0.0612,-0.51375 -0.3625,-1.53 -1.3025,-1.6325 -0.73875,-0.0713 -1.61875,0.07 -1.98,1.0725 -0.26,0.7325 0.61,1.73625 1.6525,1.67875" />
  </g>
</svg>
