<?xml version="1.0" encoding="UTF-8" standalone="no"?>
<svg
   xmlns="http://www.w3.org/2000/svg"
   version="1.1"
   id="svg4516"
   viewBox="0 0 38.185999 36.79367"
   height="10.383991mm"
   width="10.776937mm">
  <defs
     id="defs4518" />

  <g
     transform="translate(-3.8785717e-7,-1015.5685)"
     id="layer1">
    <path
       id="path218"
       style="fill:#aadc00;fill-opacity:1;fill-rule:nonzero;stroke:none"
       d="m 29.156135,1043.6397 c -0.257498,0.225 -0.166249,0.8825 0.0288,1.1788 0.309997,0.4587 0.751243,0.78 1.221239,0.4837 0.477495,-0.2987 0.548745,-0.7225 0.126248,-1.2662 -0.378746,-0.4713 -0.966241,-0.7575 -1.376237,-0.3963 M 3.0889196,1031.256 c -0.1287488,-0.5175 -0.6887438,-0.6863 -1.1387397,-0.6863 -0.3762467,0 -0.7949929,0.2538 -0.8862421,0.6863 -0.0824992,0.43 0.2174981,0.8187 0.8862421,0.8187 0.6712439,0 1.2412388,-0.4025 1.1387397,-0.8187 m 34.9309354,5.0037 c -0.323747,-0.4762 -1.023741,-0.73 -2.031232,-0.73 -0.232498,0 -0.472495,0.016 -0.728743,0.039 -0.332497,0.038 -0.644994,0.085 -0.966241,0.1388 -0.591245,0.091 -1.20374,0.1812 -2.101232,0.2262 -0.279997,0.015 -0.584994,0.02 -0.898741,0.02 -0.792493,0 -1.644986,-0.045 -2.152481,-0.11 -0.174999,-0.02 -0.406246,-0.049 -0.652494,-0.076 -0.682494,-0.072 -1.527486,-0.1687 -2.034982,-0.2987 -0.116249,-0.028 -0.283747,-0.034 -0.442496,-0.041 -0.402496,-0.015 -1.06624,-0.036 -1.06374,-0.665 0,-0.77 0.566245,-1.1363 0.994991,-1.3363 0.134998,-0.069 0.292497,-0.095 0.504995,-0.095 0.164999,0 0.339997,0.016 0.526245,0.036 0.199999,0.025 0.412497,0.041 0.606245,0.041 0.362497,0 0.626244,-0.064 0.847492,-0.2187 0.177499,-0.1188 0.239998,-0.2738 0.197499,-0.4663 -0.05,-0.2525 -0.261248,-0.475 -0.418747,-0.5012 -0.164998,-0.035 -0.326247,-0.048 -0.491245,-0.048 -0.621245,0 -1.18249,0.2412 -1.834984,0.6062 -0.158748,0.087 -0.319997,0.1375 -0.477495,0.1375 -0.378747,0 -0.637495,-0.255 -0.751244,-0.4987 -0.0937,-0.1875 -0.146248,-0.5075 0,-0.8088 0.0763,-0.1787 0.276248,-0.4175 0.716244,-0.5162 0.664994,-0.1525 1.13749,-0.42 1.313738,-0.7513 0.106249,-0.175 0.117499,-0.3637 0.0487,-0.58 -0.0662,-0.1975 -0.234998,-0.3162 -0.468746,-0.3162 -0.258748,0 -0.533745,0.1587 -0.718744,0.425 -0.278747,0.3812 -0.681244,0.6162 -1.04749,0.6162 -0.247498,0 -0.462496,-0.1 -0.622495,-0.2925 -0.467495,-0.5425 -0.404996,-1.1412 0.168749,-1.635 0.371246,-0.3337 1.327488,-1.4375 1.601235,-1.6187 0.316248,-0.2125 1.681235,-1.5275 2.124981,-1.9375 0.329997,-0.3138 0.543745,-0.7638 0.512496,-1.0963 -0.0125,-0.135 -0.0738,-0.2325 -0.162499,-0.2887 -0.168748,-0.105 -0.352497,-0.16 -0.547495,-0.16 -0.302497,0 -0.561245,0.145 -0.672494,0.37 -0.513745,1.06 -2.907474,3.9012 -3.35372,4.4237 -0.222498,0.2563 -0.451246,0.385 -0.681244,0.385 -0.183748,0 -0.332497,-0.075 -0.448746,-0.1525 -0.386246,-0.2325 -0.352496,-1.0962 -0.122498,-1.48 0.288747,-0.4825 0.184998,-0.7437 0.0462,-1.0725 -0.138749,-0.3537 -0.321247,-0.7937 0.124999,-1.4187 0.584995,-0.8463 1.881233,-2.5413 2.748725,-3.66 0.238748,-0.3213 0.447496,-0.5938 0.597495,-0.7825 0.392496,-0.5225 0.591245,-1.2225 0.466246,-1.69 -0.0525,-0.2088 -0.162499,-0.3538 -0.322497,-0.4263 -0.107499,-0.051 -0.274998,-0.1125 -0.496246,-0.1125 -0.544995,0 -0.997491,0.3738 -1.267489,1.0513 -0.749993,1.8712 -2.601226,6.2775 -3.634967,6.7575 -0.474996,0.2125 -0.654994,0.4037 -0.801243,0.555 -0.181248,0.1825 -0.352496,0.3637 -0.821242,0.3637 -0.188749,0 -0.422496,-0.026 -0.737494,-0.08 -0.351246,-0.061 -0.632494,-0.2487 -0.807492,-0.5487 -0.306248,-0.525 -0.172499,-4.3263 -0.0425,-4.6775 0.126249,-0.37 0.141249,-0.9425 -0.0925,-1.29 -0.118749,-0.1763 -0.276248,-0.2625 -0.494996,-0.2663 -0.0288,0 -0.0462,0 -0.07,0 -0.338747,0 -0.581245,0.094 -0.717494,0.2825 -0.192498,0.2675 -0.183748,0.7538 0.0263,1.37 0.157499,0.4613 0.08,3.9475 -0.101249,4.205 -0.095,0.1263 -0.267498,0.2738 -0.583745,0.2738 -0.0612,0 -0.138748,-0.01 -0.211248,-0.016 -0.582495,-0.115 -1.222489,-1.4088 -1.443737,-2.9525 -0.286247,-1.985 -0.372496,-4.2613 -0.332497,-5.53 0.0175,-0.4713 -0.172498,-0.9613 -0.509995,-1.31 -0.284998,-0.3013 -0.649994,-0.4625 -1.024991,-0.4625 -0.241248,0 -0.488746,0.072 -0.729993,0.2187 -1.2124891,0.7288 -1.1937393,1.7288 -0.976242,2.4338 0.136249,0.425 0.813743,1.7987 1.412488,3.015 0.521245,1.0612 0.524995,1.0987 0.668744,1.4762 l 0.0763,0.195 c 0.714993,1.8988 0.319997,1.0425 0.646244,1.6113 0.162499,0.3025 0.142499,1.1237 -0.118749,1.1237 -0.569995,0 -0.808743,0.02 -0.922492,-0.58 -0.07,-0.4025 -0.308747,-0.6162 -0.489995,-0.6162 -0.0525,0 -0.269998,-0.115 -0.329997,-0.072 -0.0913,0.064 -2.0674812,-0.03 -0.797493,1.8787 0.101249,0.1575 0.543745,0.6763 0.649994,0.7575 0.289998,0.2125 0.553745,0.7663 0.589995,1.2075 0.0275,0.325 -0.0787,0.5113 -0.173749,0.6138 -0.134998,0.1425 -0.507495,0.465 -1.05999,0.465 -0.3099968,0 -0.6187441,-0.1013 -0.9187414,-0.3038 -0.5649949,-0.385 -1.5224863,-1.2 -2.2937293,-1.8575 -0.2437478,-0.2012 -0.4612459,-0.395 -0.6549941,-0.5525 -1.1912393,-0.9987 -3.2012213,-3.1125 -4.0699634,-4.2087 -0.2999973,-0.37 -0.7962429,-0.6188 -1.231239,-0.6188 -0.2812474,0 -0.52874517,0.1 -0.73124335,0.3 -0.0399996,0.038 -0.10624905,0.1863 -0.0462996,0.48 0.0987991,0.565 0.58499474,1.3988 1.63498525,1.88 0.082499,0.036 0.1649985,0.074 0.2612477,0.115 0.7224935,0.3238 1.8249836,0.81 2.2799795,1.5638 0.1974982,0.32 0.1599985,0.53 0.098699,0.6462 -0.082499,0.1338 -0.222498,0.2063 -0.3849966,0.2063 -0.2537477,0 -0.5737448,-0.1588 -0.9074918,-0.4588 -0.1449987,-0.1262 -0.3449969,-0.2025 -0.5449951,-0.2025 -0.1987482,0 -0.3737466,0.071 -0.4562459,0.1863 -0.066299,0.094 -0.076299,0.2262 -0.0312,0.3775 0.1824983,0.5837 1.11249,0.9162 3.3062203,1.1762 1.1287398,0.1313 2.6849758,0.9288 3.3137201,1.4363 0.3512469,0.2837 0.5012455,0.5537 0.4812457,0.8262 -0.0325,0.375 -0.4012464,0.5863 -0.5199953,0.6613 -0.4887456,0.2825 -0.4074963,0.5375 -0.1987482,1.0062 0.1224989,0.2788 0.3099972,0.6975 -0.056299,0.955 -0.1312488,0.091 -0.2962473,0.135 -0.4974955,0.135 -0.3724967,0 -0.8199927,-0.1575 -1.1962393,-0.425 -0.6337443,-0.445 -1.2124891,-0.7125 -1.554986,-0.7125 -0.063799,0 -0.107499,0.01 -0.1512486,0.029 -0.2474978,0.105 -0.2637477,0.1863 -0.1962483,0.4063 0.078799,0.2362 0.7487433,0.4125 0.9962411,0.4775 0.5012455,0.13 0.5412451,0.4387 0.5299952,0.565 -0.0175,0.3312 -0.3524968,0.5762 -0.663744,0.6212 -0.1637486,0.026 -0.3999964,0.039 -0.6899938,0.039 -0.3912465,0 -0.9262417,-0.029 -1.226239,-0.11 -0.4312461,-0.1075 -0.7424933,-0.2275 -1.0124909,-0.3325 -0.4349961,-0.1675 -0.772493,-0.3012 -1.3787376,-0.3512 -0.0288,0 -0.0575,0 -0.079999,0 -0.4487459,0 -1.09249011,0.275 -1.30748817,0.6775 -0.11249899,0.2137 -0.19999821,0.5487 -0.06629941,0.775 0.14749868,0.2437 0.54374511,0.3737 1.13748978,0.3737 0.2462477,0 0.5174953,-0.024 0.8112427,-0.061 0.3562468,-0.053 0.7074936,-0.096 1.0474905,-0.1475 1.5837358,-0.2225 3.0874723,-0.4375 4.0874633,-0.4375 0.4574959,0 0.7912429,0.046 1.0287407,0.1338 0.7274935,0.2737 1.0374907,0.87 1.0274908,1.3387 -0.007,0.3638 -0.2174981,0.7213 -0.5162454,0.8538 -0.1287488,0.061 -0.2812474,0.094 -0.4637458,0.11 -0.2474978,0.025 -5.2474528,1.1812 -5.5449501,1.17 -0.3099972,-0.01 -0.6337443,-0.02 -0.9374916,0.015 -0.1049991,0.01 -0.1862483,0.023 -0.2712476,0.039 -0.3662467,0.079 -0.60249451,0.2062 -0.70124362,0.3712 -0.0649994,0.1075 -0.0674994,0.2388 -0.006,0.4013 0.0749993,0.2325 0.34124682,0.6125 0.83624242,0.56 0.1674985,-0.014 0.3499968,-0.081 0.5399951,-0.1938 0.4662458,-0.2775 6.3486929,-1.8962 6.9949371,-1.9637 0.079999,-0.01 0.1499987,-0.01 0.2149981,-0.01 0.327497,0.017 0.5774948,0.2737 0.7262424,0.61 0.138749,0.33 0.0987,0.685 -0.108748,0.99 -0.2937473,0.4325 -0.9749912,0.6525 -1.6937347,0.8912 -0.3724967,0.1213 -0.7599932,0.2463 -1.0912402,0.4038 -0.4349961,0.2087 -0.6199944,0.4987 -0.6924938,0.7087 -0.086299,0.2463 -0.062499,0.4788 0,0.6038 0.0275,0.074 0.2412478,0.2112 0.5724949,0.2112 0.1624985,0 0.4699957,-0.035 0.7349933,-0.29 0.1799984,-0.1775 1.8487334,-1.7775 2.4862265,-1.9575 0.181249,-0.051 0.349997,-0.074 0.502496,-0.074 0.333747,0 0.608744,0.115 0.792493,0.3338 0.238748,0.2775 0.322497,0.6875 0.244998,1.1887 -0.0825,0.54 -1.088741,1.8725 -1.393738,2.265 -0.5337443,0.6925 -2.5849759,3.1538 -3.1024712,3.5738 -0.7399934,0.5962 -1.8087338,2.02 -1.9112328,3.1475 -0.0138,0.1612 0.0425,0.3312 0.1699984,0.4712 0.1537487,0.165 0.3737467,0.2625 0.6074946,0.2625 0.1862483,0 0.3687467,-0.06 0.5587449,-0.1725 0.5462451,-0.3275 1.0862403,-1.335 1.3774877,-1.8762 l 0.0287,-0.045 c 1.2462388,-2.3125 2.1774804,-3.965 2.7712254,-4.9125 l 0.102499,-0.1712 c 0.422496,-0.6875 0.612494,-0.3738 1.481236,-0.6963 0.264998,-0.1012 0.561245,-0.1525 0.852493,-0.1525 0.716243,0 1.594985,-0.7737 1.752484,-0.2987 0.199998,0.6087 -0.0163,2.0112 -0.311247,2.4725 -0.0925,0.145 -0.0925,0.3637 -0.002,0.5325 0.0838,0.145 0.216248,0.2187 0.388746,0.2187 0.03,0 0.749994,-0.01 0.762493,-0.8925 0.002,-0.4487 -0.065,-0.8312 -0.132498,-1.1575 -0.0763,-0.375 -0.131249,-0.68 -0.05,-0.9437 0.095,-0.29 0.298747,-0.46 0.551245,-0.46 0.243748,0 0.494996,0.17 0.682494,0.4675 0.203748,0.33 0.211248,0.735 0.211248,1.09 0.01,0.5675 0.0625,0.6 0.203748,0.6025 l 0.0113,0 c 0.164999,0 0.263748,-0.04 0.318747,-0.1213 0.0613,-0.1037 0.0463,-0.2837 -0.0387,-0.4387 -0.139999,-0.265 -0.368747,-0.7113 -0.231248,-1.1838 0.154998,-0.4837 0.446246,-0.5575 0.603744,-0.5575 0.207498,0 0.418747,0.1125 0.624995,0.3263 0.281247,0.2862 0.528745,1.0912 0.946241,2.4962 0.0738,0.2475 0.148749,0.4963 0.221248,0.7488 0.0937,0.2937 0.197498,0.6662 0.312497,1.0962 0.211248,0.73 0.462496,1.635 0.738744,2.5138 0.493745,1.5275 1.246239,2.4387 2.009982,2.4387 0.0575,0 0.108749,-0.01 0.167498,-0.01 0.212498,-0.038 0.357497,-0.2 0.441246,-0.3275 0.258748,-0.3725 0.327497,-0.9575 0.194998,-1.525 -0.226248,-0.9437 -0.803742,-1.9762 -1.666235,-2.9887 -0.734993,-0.8575 -1.729984,-2.5963 -1.844983,-2.9975 -0.271248,-0.9525 -0.222498,-1.5438 0.152499,-1.8063 0.174998,-0.1212 0.424996,-0.1912 0.696243,-0.1912 0.277498,0 0.551245,0.078 0.784993,0.2187 0.504996,0.3163 1.583736,2.375 1.763734,2.79 0.0812,0.18 0.157499,0.3413 0.223748,0.4388 0.296248,0.3712 0.622495,0.56 0.984992,0.56 0.193748,0 0.392496,-0.055 0.597494,-0.1513 0.286248,-0.1412 0.369997,-0.4537 0.393747,-0.625 0.04,-0.32 -0.0525,-0.6675 -0.223748,-0.8225 -0.338747,-0.3062 -0.859993,-0.5612 -1.283739,-0.7675 -0.172498,-0.089 -0.323747,-0.1625 -0.446246,-0.2287 -0.274997,-0.1588 -0.279997,-1.1375 -0.309997,-1.5013 -0.025,-0.3462 0.117499,-0.6612 0.376247,-0.8562 0.257497,-0.205 -0.362497,-1.225 0.0212,-1.225 0.168749,0 0.326248,0.029 0.453746,0.081 0.527496,0.2 0.963742,0.7425 1.627486,1.6062 0.279997,0.3638 0.564995,0.5825 1.154989,0.9975 0.394997,0.2763 0.868743,0.4538 1.213739,0.4538 0.112499,0 0.208749,-0.02 0.257498,-0.053 0.249998,-0.165 0.401247,-0.3875 0.421246,-0.63 0.0275,-0.265 -0.108749,-0.5438 -0.381246,-0.7975 -0.336247,-0.3113 -0.887492,-0.5763 -1.504987,-0.7225 -0.803742,-0.1888 -0.881242,-0.5513 -0.857492,-0.7463 0.0225,-0.2662 0.294997,-0.4625 0.629994,-0.4625 0.0562,0 0.126249,0.01 0.184999,0.021 0.149998,0.036 0.301247,0.051 0.431246,0.051 0.251248,0 0.443746,-0.064 0.546245,-0.1662 0.0625,-0.074 0.156248,-0.2163 0.112499,-0.355 -0.05,-0.1288 -0.224998,-0.225 -0.466246,-0.255 -0.717493,-0.088 -1.204989,-0.1638 -1.917483,-0.36 -0.698743,-0.1988 -1.347488,-0.4638 -1.299988,-1.0125 0.0275,-0.3588 0.343747,-0.745 1.13999,-0.745 0.126249,0 0.264997,0.015 0.411246,0.031 0.593745,0.081 1.14374,0.2662 1.641235,0.435 0.219998,0.08 0.441246,0.155 0.634995,0.2075 0.674994,0.1825 2.419978,1.1125 2.952473,1.5025 0.518745,0.3762 1.347488,0.6762 1.881233,0.6762 0.161249,0 0.239998,-0.031 0.267498,-0.045 0.161248,-0.084 0.274997,-0.2512 0.284997,-0.4287 0.0175,-0.1838 -0.065,-0.355 -0.243748,-0.4963 -0.191248,-0.1425 -0.261247,-0.3875 -0.191248,-0.6175 0.0662,-0.2225 0.293747,-0.4625 0.726244,-0.4825 0.055,-0.01 0.107499,-0.01 0.164998,-0.01 0.549995,0 1.06374,0.13 1.564986,0.255 0.468746,0.1225 0.922492,0.2375 1.373738,0.2375 0.05,0 0.0875,0 0.122498,0 0.374997,-0.018 0.643745,-0.1825 0.793743,-0.4625 0.142499,-0.29 0.108749,-0.6675 -0.0775,-0.9475 m -12.21989,14.42 c -0.509995,0.072 -0.776243,0.585 -0.776243,0.8863 0,0.3037 0.035,0.775 0.796243,0.7912 0.531245,0.011 0.936241,-0.5187 0.818742,-1.0362 -0.0863,-0.3863 -0.392496,-0.705 -0.838742,-0.6413 m 4.47371,-19.4025 c 0.444996,0 0.761243,-0.2825 0.761243,-0.6175 0,-0.4562 -0.446246,-0.6487 -0.946242,-0.5287 -0.352496,0.081 -0.553745,0.395 -0.492495,0.7862 0.0312,0.19 0.244998,0.3575 0.677494,0.36 m -22.152301,-7.4825 c 0.2274979,-0.1862 0.2249979,-0.6212 0.092499,-0.9475 -0.1262488,-0.32 -0.3799966,-0.4225 -0.5962446,-0.3112 -0.3724967,0.1787 -0.334997,0.665 -0.1812484,0.955 0.1424987,0.2937 0.4962456,0.4612 0.6849939,0.3037 m -2.1487307,20.5075 c 0.4299961,-0.1737 0.4949955,-0.7975 0.3899965,-1.1212 -0.1524987,-0.4638 -0.7949929,-0.69 -1.2512388,-0.4313 -0.4187462,0.245 -0.4549959,0.8725 -0.1674985,1.305 0.1949983,0.2963 0.5987446,0.4175 1.0287408,0.2475 m 11.7736438,1.2225 c -0.254997,-0.1412 -0.524995,0.1488 -0.571244,0.6775 -0.0487,0.5213 0.178748,0.9388 0.401246,0.96 0.253748,0.018 0.531245,-0.28 0.531245,-0.735 0.004,-0.4612 -0.101249,-0.7537 -0.361247,-0.9025" />
  </g>
</svg>
