<?xml version="1.0" encoding="UTF-8" standalone="no"?>
<svg
   xmlns="http://www.w3.org/2000/svg"
   version="1.1"
   id="svg4424"
   viewBox="0 0 118.17977 96.838879"
   height="27.330084mm"
   width="33.352959mm">
  <defs
     id="defs4426" />

  <g
     transform="translate(0,-955.52336)"
     id="layer1">
    <path
       id="path406"
       style="fill:#fa5a00;fill-opacity:1;fill-rule:nonzero;stroke:none"
       d="m 97.390297,1044.3386 c -0.375,-0.027 -1.27125,0 -1.56875,0.7312 -0.30875,0.6975 0.0987,1.2375 0.24625,1.435 0.35125,0.4988 1.20375,0.7363 1.7575,0.5188 0.62625,-0.245 1.12875,-0.9 0.84,-1.7525 -0.16625,-0.455 -0.77625,-0.895 -1.275,-0.9325 M 8.8378004,1025.2098 c -0.0412,0 -0.0975,0.01 -0.13,0.013 -0.44,0.087 -0.90125,0.4513 -0.87125,1.07 0.0238,0.7738 0.29375,0.9988 1.14125,0.98 l 0.0312,0 c 0.35875,-0.019 0.665,-0.1987 0.85125,-0.495 0.1762496,-0.2862 0.1862496,-0.6362 0.06,-0.9337 -0.1725,-0.3838 -0.6375,-0.655 -1.0825,-0.6338 M 117.46525,1011.8748 c -2.8275,-8.8863 -12.7425,-11.11 -15.78625,-11.0288 -3.038753,0.081 1.69125,-3.79623 -1.51625,-5.59623 -3.492503,-1.96125 -6.601253,0.075 -7.272503,1.58125 -1.37375,3.05875 4.05,2.96125 0.82375,5.09998 -1.78125,1.175 -3.492497,2.4263 -4.829997,5.2588 -1.9425,4.1462 -0.6175,6.1737 -2.9875,6.8975 -2.3875,0.7275 -2.695,-4.225 -9.165,-2.195 -4.595,1.4425 0.16875,-5.6375 -6.33625,-6.7175 -0.1425,-0.029 -0.28,-0.043 -0.43375,-0.062 -0.07,-0.1963 -0.1775,-0.3638 -0.315,-0.4863 -0.28,-0.2537 -0.6275,-0.355 -1.0875,-0.3337 -0.30625,0.015 -0.625,0.08 -0.945,0.1425 -0.2975,0.064 -0.635,0.13 -0.925,0.14 -0.12125,0 -0.23625,0 -0.35,-0.01 -0.82,-0.1013 -1.3075,-0.865 -1.27125,-1.9525 0.0475,-1.235 0.82,-2.58 2.1475,-2.64503 0.0462,-0.003 0.0913,-0.003 0.13875,-0.003 1.45,0.0275 4.62125,0.83623 5.95,1.52003 0.7075,0.3662 1.35875,0.5512 1.86375,0.5312 0.5375,-0.026 0.91375,-0.2962 1.11375,-0.8212 0.1025,-0.24 0.0825,-0.4588 -0.0525,-0.665 -0.35,-0.53753 -1.455,-0.93753 -2.7675,-0.99878 -0.63625,-0.0338 -1.9875,-0.11625 -3.29625,-0.195 -0.8125,-0.05 -1.595,-0.10375 -2.16,-0.13375 -0.82375,-0.0475 -1.24375,-0.78875 -1.24375,-1.49375 0,-0.765 0.46,-1.32375 1.12125,-1.35125 0.145,-0.009 0.30375,0.0137 0.47,0.055 0.43,0.11875 0.835,0.2375 1.2225,0.34875 1.4525,0.41625 2.505,0.71125 3.235,0.6825 0.44125,-0.025 0.73625,-0.16125 0.95125,-0.4525 0.3075,-0.4225 0.395,-0.83875 0.23,-1.15 -0.17125,-0.31125 -0.57375,-0.49 -1.09875,-0.46625 -0.395,0.0187 -0.70875,-0.19 -0.77875,-0.50625 -0.0475,-0.26875 0.0537,-0.7875 1.315,-1.23375 0.5625,-0.1975 1.13125,-0.305 1.73875,-0.33375 0.74125,-0.0325 1.445,0.055 2.12375,0.13875 0.685,0.0837 1.38125,0.1725 2.11375,0.1375 0.5325,-0.0238 1.035,-0.1075 1.52625,-0.2625 1.3025,-0.405 1.86875,-1.41 1.56875,-2.77 -0.23625,-1.02875 -1.6025,-2.09 -3.41875,-2.00375 -0.40875,0.0175 -0.81625,0.0937 -1.205,0.2325 -1.54625,0.5275 -3.8275,1.97375 -5.66625,3.13 -0.92625,0.5875 -1.80875,1.145 -2.45625,1.50375 -0.44125,0.23625 -0.8325,0.3625 -1.1725,0.37625 -0.7625,0.0362 -1.13125,-0.4825 -1.16,-1.00375 -0.015,-0.525 0.29625,-1.08125 0.8775,-1.10625 l 0.0537,0 c 0.1,0 0.19625,-0.001 0.2925,-0.009 0.96,-0.0375 1.5875,-0.3575 1.8,-0.8875 0.14125,-0.365 0.0412,-0.79 -0.21875,-1.06125 -0.18375,-0.1825 -0.36,-0.26375 -0.5675,-0.2525 -0.30625,0.0125 -0.65375,0.2175 -0.98375,0.4175 -0.3725,0.2175 -0.75375,0.44375 -1.15,0.4625 -0.46875,0.0225 -0.86,-0.24125 -1.17625,-0.80625 -0.36375,-0.64625 -0.3675,-1.65875 0,-2.34375 0.27625,-0.51125 0.73,-0.81875 1.2875,-0.86125 1.525,-0.11875 2.65375,-0.55875 3.01375,-1.18125 0.1625,-0.2875 0.1625,-0.6175 -0.006,-0.9725 -0.0763,-0.175 -0.1875,-0.24 -0.365,-0.2325 -0.4675,0.025 -1.2025,0.51125 -1.91125,0.9875 -0.45125,0.3 -0.9175,0.615 -1.35125,0.83125 -0.25375,0.1275 -0.515,0.1975 -0.7725,0.21 -1.18625,0.0525 -1.995,-1.11125 -2.4275,-1.73875 l -0.0675,-0.0963 c -0.4075,-0.58125 -0.99125,-1.82875 -0.6425,-2.80875 0.19125,-0.54875 0.635,-0.92125 1.29375,-1.11125 2.0225,-0.5875 2.66875,-1.665 2.59125,-2.485 -0.07,-0.77 -0.75,-1.35375 -1.7075,-1.44125 -0.1175,-0.01 -0.21625,-0.0125 -0.3075,-0.009 -1.1425,0.0537 -1.685,1.14875 -2.12,2.02875 -0.0263,0.06 -0.0613,0.1175 -0.0875,0.1775 -0.3575,0.7025 -0.815,0.8675 -1.13875,0.88125 -0.34375,0.0188 -0.72,-0.1375 -1.045,-0.43625 -0.3975,-0.3725 -0.6475,-0.8975 -0.66,-1.37125 -0.0325,-1.26375 0.615,-2.23125 1.9175,-2.89 2.0075,-1.0175 2.895,-2.21875 2.8575,-2.90125 -0.002,-0.32125 -0.22875,-0.56375 -0.63625,-0.72875 -0.18625,-0.0687 -0.35375,-0.1 -0.54375,-0.0888 -0.91375,0.04 -1.92375,0.9925 -2.99375,2.8225 -0.35125,0.59 -0.91,1.38375 -1.71625,1.42125 -0.19125,0.01 -0.38375,-0.0263 -0.58625,-0.10625 -0.4875,-0.2 -0.84875,-0.6825 -0.96,-1.26625 -0.0875,-0.47875 -0.0712,-1.43625 1.01375,-2.43875 1.7375,-1.58375 2.735,-3.69875 2.61375,-5.51875 -0.0825,-1.12875 -0.5775,-2.05 -1.45625,-2.65875 -0.7425,-0.51875 -1.41625,-0.76125 -2.0025,-0.735 -1.8425,0.085 -2.6875,2.85125 -3.19,4.5075 -0.52625,1.7175 -1.0425,2.71875 -2.09625,2.765 -0.25625,0.015 -0.54,-0.0325 -0.8775,-0.1325 -1.78625,-0.56 -1.51,-2.4575 -1.38125,-3.36375 0.0375,-0.25875 0.0813,-0.50125 0.12,-0.72 0.19,-1.105 0.19,-1.4025 -0.20125,-1.51875 -0.0575,-0.0138 -0.095,-0.0225 -0.1425,-0.0225 -0.41375,0.0175 -0.7375,0.905 -0.795,2.15125 -0.06,1.2275 -0.91625,1.96625 -2.34625,2.03125 -0.3975,0.0225 -0.79875,-0.0163 -1.1825,-0.0975 -1.22375,-0.265 -2.62625,-0.8525 -2.68625,-3.11 -0.0138,-0.54875 -0.17875,-0.9875 -0.47125,-1.26625 -0.25875,-0.23125 -0.61125,-0.355 -0.99,-0.33625 -0.45375,0.0175 -0.8725,0.23375 -1.1525,0.56625 -0.22875,0.29 -0.31625,0.65 -0.24875,1.03875 0.1375,0.69625 -0.0475,1.43 -0.48125,1.97125 -0.29875,0.3775 -0.8775,0.84375 -1.89875,0.8925 -0.445,0.0213 -0.9475,-0.0487 -1.49,-0.1975 -2.65,-0.74625 -2.93875,-3.3125 -2.87625,-5.71875 0.0175,-0.43 -0.0962,-0.765 -0.32,-0.98125 -0.16875,-0.16875 -0.40125,-0.2575 -0.64875,-0.2475 -0.28625,0.0163 -0.54875,0.1675 -0.6975,0.40375 -0.21125,0.35 -0.17625,0.84875 0.085,1.4125 l 0.10875,0.2225 c 0.7925,1.69125 1.87875,4.00375 1.1325,5.3825 -0.4325,0.80875 -1.41375,1.38625 -2.43,1.435 -0.955,0.0425 -1.85375,-0.36625 -2.475,-1.15875 -0.40125,-0.49375 -1.065,-0.82 -1.62125,-0.79375 -0.2025,0.006 -0.4725,0.0662 -0.6325,0.3 -0.2,0.28 -0.2075,0.75375 -0.025,1.36 l 0.0375,0.125 c 0.36,1.19625 0.6775,2.2325 -0.3975,2.87625 -0.24875,0.15 -0.5,0.23125 -0.7525,0.24125 -1.63125,0.08 -2.9325,-2.62625 -4.74625,-6.76 -0.53625,-1.25125 -1.2075,-1.9825 -1.78625,-1.95 -0.31375,0.009 -0.57375,0.2675 -0.695,0.655 -0.16125,0.54375 -0.045,1.4025 0.80875,2.0375 1.34375,0.98 4.53,5.12125 4.68125,6.945 0.0425,0.6 -0.12625,1.15 -0.51125,1.595 -0.455,0.51125 -1.20375,0.85875 -1.94,0.88875 -0.40625,0.0188 -0.78,-0.0637 -1.03,-0.24125 -0.53375,-0.37 -0.8125,-0.8175 -1.06875,-1.20375 -0.32125,-0.4925 -0.56625,-0.87625 -1.24625,-1.025 -0.17625,-0.0375 -0.34125,-0.05 -0.495,-0.0462 -0.3825,0.0187 -0.7025,0.1675 -0.86625,0.4025 -0.15,0.22 -0.17,0.52 -0.0725,0.86 0.22625,0.76375 0.75125,1.0125 1.3525,1.2925 0.5625,0.26625 1.19625,0.56625 1.62375,1.345 0.24875,0.46875 0.2575,0.99375 0.0113,1.4175 -0.2225,0.40375 -0.65,0.65875 -1.1425,0.6825 -0.19,0.007 -0.37625,-0.0163 -0.5775,-0.0725 -2.3625,-0.66625 -6.465,-3.275 -7.4162496,-4.73125 -0.20875,-0.305 -0.49625,-0.36 -0.715,-0.34875 -0.49125,0.0238 -0.99625,0.4 -1.08375,0.8225 -0.0888,0.42125 0.225,0.83875 0.89,1.175 0.295,0.14375 0.72,0.33125 1.22,0.55125 2.1637496,0.94 5.7974996,2.52 6.4574996,4.57375 0.23375,0.73375 0.065,1.2 -0.1175,1.4625 -0.26625,0.37375 -0.73875,0.605 -1.31375,0.6325 -0.2575,0.01 -0.53,-0.0213 -0.77625,-0.0975 -0.54625,-0.16125 -1.09625,-0.6025 -1.67125,-1.075 -0.68,-0.555 -1.37375,-1.12 -1.95625,-1.09625 -0.2737496,0.0113 -0.5124996,0.16375 -0.7337496,0.46375 -0.20625,0.27625 -0.26125,0.55 -0.1325,0.835 0.3875,0.92875 2.4049996,1.7925 3.9599996,2.00625 0.76625,0.0975 1.0225,0.5625 0.99875,0.9575 -0.015,0.5225 -0.47375,0.98625 -0.99875,1.005 -0.2175,0.0137 -0.4425,-0.0538 -0.63875,-0.19125 -0.4775,-0.3125 -0.92875,-0.47375 -1.315,-0.45375 -0.5225,0.0275 -0.785,0.37375 -0.80625,0.68875 -0.006,0.37375 0.2875,0.855 1.205,0.9875 0.84875,0.125 1.1775,0.60625 1.31,0.985 0.30375,0.90125 -0.2225,2.10375 -0.7275,2.62375 -0.61375,0.64875 -1.41,0.99625 -2.34125,1.03875 -0.9899996,0.0487 -2.1324996,-0.24 -3.4149996,-0.85375 -0.68,-0.335 -1.33,-0.48875 -1.9275,-0.46375 -0.6775,0.0363 -1.28125,0.3175 -1.74875,0.8225 -0.55625,0.61625 -0.86375,1.52125 -0.82125,2.415 0.0525,1.06875 0.82125,3.05125 3.355,2.935 0.52625,-0.0238 1.09625,-0.13625 1.69625,-0.33625 1.225,-0.3975 2.3125,-0.6225 3.2399996,-0.665 1.1825,-0.0575 2.07375,0.19375 2.5025,0.705 0.2525,0.29625 0.33625,0.665 0.2525,1.0625 -0.19,0.84125 -1.1575,1.3075 -2.88375,1.39 -0.4837496,0.0225 -0.9387496,0.01 -1.2474996,-0.002 -0.115,-0.002 -0.23125,-0.002 -0.34,0 -0.795,0.0337 -1.23625,0.3375 -1.21,0.825 0.0162,0.59878 0.705,1.29998 1.49375,1.25878 0.18875,0 0.365,-0.054 0.54,-0.14 1.0674996,-0.5175 2.0949996,-0.9825 2.9249996,-1.0238 0.4775,-0.02 0.85125,0.1038 1.10875,0.3763 0.51,0.5325 1.08625,2.1112 0.83,3.3775 -0.1425,0.7125 -0.54625,1.2262 -1.1425,1.4837 -0.95375,0.4075 -1.81,0.55 -2.80125,0.725 -0.8499996,0.145 -1.8249996,0.3163 -3.0237496,0.6938 -1.19625,0.375 -1.58875,1.3687 -1.45625,2.125 0.11375,0.6375 0.625,1.2912 1.7225,1.24 0.11125,0 0.22875,-0.015 0.3475,-0.035 1.55625,-0.2725 2.2174996,-0.5363 3.2324996,-1.0388 0.83125,-0.4037 1.46625,-0.755 2.14375,-0.85 0.1375,-0.02 0.27,-0.033 0.4025,-0.038 0.94375,-0.046 1.67875,0.2575 2.19625,0.9013 0.42125,0.5487 0.68125,1.315 0.71125,2.2737 0.0937,1.9425 -1.945,4.4051 -4.39875,6.1476 -1.68875,1.19 -2.1925,2.2375 -2.1075,2.8262 0.0475,0.3375 0.1725,0.7125 0.60375,0.8513 0.0612,0.02 0.25625,0.039 0.32375,0.035 0.58125,-0.029 1.15625,-0.4075 1.79,-1.2125 0.175,-0.2125 0.3325,-0.575 0.5075,-0.7763 l 0.14875,-0.1725 c 0.8775,-1.05 1.885,-2.2412 2.77875,-2.285 0.21125,-0.01 0.4475,0.014 0.5775,0.1788 0.2275,0.2525 -0.0487,0.7912 -0.0625,1.0587 -0.01,0.2738 0.025,0.9975 0.0813,1.4175 0.0512,0.75 0.68625,1.2888 0.105,2.1963 -0.11125,0.1187 -0.225,0.2425 -0.3375,0.35 -1.6,1.6587 -1.655,2.7537 -1.6,3.1512 0.03,0.29 0.16375,0.51 0.36125,0.63 0.0312,0.025 0.0713,0.025 0.11,0.025 0.34,-0.016 0.85875,-0.6262 1.34,-1.315 2.395,-2.7962 4.96625,2.2675 5.55,11.045 0.9775,14.7013 11.865,15.2313 13.25625,6.0538 1.135,-7.4625 5.75375,-14.0713 7.05125,6.42 0.42875,6.705 8.20125,5.8962 8.52875,-2.9388 0.145,-3.8675 0.20375,-8.2175 2.78125,-8.345 2.58625,-0.1162 2.72375,-9.5912 2.77125,-10.1775 0.1025,-1.4587 1.3475,-2.1037 1.975,-1.1125 0.22,0.3975 0.46625,0.765 0.755,1.0738 0.18625,0.1975 0.4025,0.2975 0.63125,0.2887 0.31625,-0.016 0.6125,-0.2275 0.7775,-0.5412 0.1225,-0.2225 0.275,-0.685 -0.0775,-1.2713 -0.2975,-0.48 -0.76,-0.9962 -1.2475,-1.5537 -0.53125,-0.8275 -0.53375,-1.2725 -0.27875,-1.8125 0.3925,-0.8038 1.53375,-1.2225 2.02625,-1.3488 0.275,-0.045 0.5225,-0.1712 0.715,-0.385 0.27,-0.2862 0.4125,-0.6062 0.43125,-0.9362 2.3025,0.595 4.97875,-0.2125 4.38,1.6875 -0.79,2.4687 -1.97125,4.9462 -1.685,7.9912 -0.29875,-0.2262 -0.665,-0.3537 -1.06125,-0.33 -0.0225,0 -0.0487,0 -0.075,0 -0.97625,0.086 -1.47625,0.865 -1.37,2.1288 0.0875,1.295 0.6775,2.1062 1.48375,2.07 l 0.0462,-0.01 c 0.5975,-0.046 1.2225,-0.6613 1.5275,-1.3763 0.0263,0.081 0.0612,0.1663 0.0913,0.255 1.49375,3.9688 5.49125,6.7975 9.2825,7.9138 5.6075,1.6562 9.03,0.6975 10.005,0.31 0.95875,-0.38 5.08875,-1.5038 7.156247,-7.3688 1.655,-4.69 -1.05875,-6.6087 1.135,-6.9412 2.21125,-0.3288 2.73375,3.7637 9.131253,5.2 4.04,0.9075 6.84125,-0.053 9.85375,-2.135 3.61875,-2.495 7.31,-9.1338 5.0075,-16.3876 m -13.0875,23.6013 c -1.5,-0.6025 -3.1275,-0.2237 -3.69875,0.6788 -0.56875,0.9062 -0.870003,2.6325 0.2675,3.8225 0.5525,0.5812 1.4975,1.3087 3.18875,1.2175 1.3125,-0.069 2.2525,-1.4675 2.15125,-2.7988 -0.0937,-1.33 -0.7825,-2.4687 -1.90875,-2.92 m -23.1975,-34.6875 -0.045,0 c -1.025,0.08 -1.31625,1.0712 -1.27125,1.8975 0.05,0.7062 0.635,1.175 1.435,1.1387 0.0412,0 0.0825,0 0.115,-0.01 0.63,-0.072 1.14625,-0.9412 1.1025,-1.8637 -0.06,-0.85 -0.7075,-1.2 -1.33625,-1.1713 m -74.3699996,29.1301 c -0.8625,0.036 -1.11375,0.2775 -1.46625,0.7512 -0.34625,0.4763 -0.50125,1.2813 -0.3725,1.955 0.0637,0.3588 0.23625,0.84 0.68125,1.1163 0.59,0.375 0.79625,0.6462 1.49625,0.6162 0.58,-0.033 0.55,-0.1775 1.00125,-0.4787 0.78875,-0.5225 1.0925,-2.105 0.565,-2.9163 -0.515,-0.8112 -1.04625,-1.0812 -1.905,-1.0437 M 74.95925,984.27952 c 0.0475,-0.002 0.0937,-0.0113 0.135,-0.0138 1.01125,-0.10875 1.0925,-0.33125 1.60375,-1.07375 0.59375,-0.855 0.73875,-2.03875 0.4125,-3.3375 -0.13125,-0.53625 -0.61625,-1.17375 -1.01875,-1.3625 -0.31125,-0.14 -0.6475,-0.20125 -1.01125,-0.18625 -1.48375,0.0675 -2.2775,1.23 -2.59375,2.8025 -0.15375,0.8275 0.0662,1.69375 0.60125,2.33 0.485,0.565 1.17,0.87375 1.87125,0.84125 m -71.3837496,-0.0312 c -0.0962,-1.40625 -0.62,-2.1375 -2.03625,-2.07125 l -0.01,0 c -0.55249996,0.03 -0.75499996,0.13375 -1.07500006,0.4975 -0.3375,0.375 -0.4925,0.89375 -0.44625,1.46 0.0687,1.08375 0.5987501,2.12875 1.73375006,2.07125 l 0.005,0 c 0.5575,-0.0275 1.04125,-0.2625 1.39125,-0.64875 0.32,-0.365 0.475,-0.83 0.4375,-1.30875 m 23.2662496,-23.07125 0.0487,-0.002 c 0.6775,-0.0425 1.3075,-0.53 1.75625,-1.0375 0.43625,-0.495 0.57,-1.53625 0.5275,-2.17625 -0.0913,-1.5325 -0.79375,-2.51 -2.45625,-2.43375 l -0.006,0 c -0.5725,0.03 -1.31875,0.48375 -1.73625,0.96125 -0.51875,0.585 -0.48125,1.94625 -0.4225,2.76 0.0888,0.995 1.075,1.98625 2.28875,1.92875 m 23.82875,-0.77875 0.0537,0 c 0.8625,-0.0788 1.78625,-1.345 1.72,-2.37625 -0.0713,-1.08375 -0.8475,-1.875 -1.815,-1.83125 -0.02,0.002 -0.05,0.005 -0.0675,0.007 -0.975,0.085 -1.47375,0.8625 -1.3775,2.13 0.09,1.29375 0.68,2.10625 1.48625,2.07 m -37.7925,3.86375 c 0.0588,-0.002 0.12125,-0.006 0.185,-0.0187 0.16125,-0.0288 0.6125,-0.34875 0.545,-0.78 -0.14375,-0.9325 -0.82,-1.01625 -1.10125,-1.01625 l -0.004,0 c -0.12875,0.0112 -0.2525,0.0838 -0.3575,0.20375 -0.14875,0.19 -0.2125,0.4625 -0.1725,0.73625 0.0987,0.605 0.395,0.9 0.905,0.875 m 0.61875,-3.13875 c 0.53,0.26875 0.625,0.4025 1.04375,0.385 0.105,-0.01 0.20375,-0.0175 0.29875,-0.0412 0.4475,-0.10375 1.1225,-0.46 1.1975,-1.4475 0.0688,-0.89375 -0.165,-1.9775 -0.9925,-2.2625 -0.27375,-0.0937 -0.54625,-0.13875 -0.80875,-0.125 -0.61875,0.0263 -0.785,0.27375 -1.1375,0.87625 -0.2825,0.47375 -0.33375,1.27875 -0.22,1.64125 0.0888,0.31625 0.2475,0.7775 0.61875,0.97375" />
  </g>
</svg>
