<?xml version="1.0" encoding="UTF-8" standalone="no"?>
<svg
   xmlns="http://www.w3.org/2000/svg"
   version="1.1"
   id="svg4447"
   viewBox="0 0 38.183762 46.09138"
   height="13.008012mm"
   width="10.776306mm">
  <defs
     id="defs4449" />

  <g
     transform="translate(0,-1006.2761)"
     id="layer1">
    <path
       id="path386"
       style="fill:#fa3296;fill-opacity:1;fill-rule:nonzero;stroke:none"
       d="m 23.214813,1041.4787 c -0.56375,0 -0.7375,0.5 -0.46,0.8713 0.195,0.2462 0.5175,0.13 0.6975,-0.077 0.24625,-0.3463 0.1125,-0.7938 -0.2375,-0.7938 m 3.6525,-4.26 c -0.2825,0.1925 -0.15125,0.6988 0.1225,0.6988 0.28,0 0.34,-0.4188 0.27,-0.63 -0.0612,-0.1 -0.17125,-0.1838 -0.3925,-0.069 M 3.5460633,1030.72 c -0.4325,0.145 -0.645,0.8625 -0.2825,1.2887 0.3425,0.3788 0.7475,0.485 1.07625,0.3013 0.26625,-0.1575 0.6275,-0.6925 0.36625,-1.1325 -0.205,-0.3425 -0.55125,-0.665 -1.16,-0.4575 m 0.4325,-14.3738 c 0,-0.4912 -0.2025,-1.0512 -1.14125,-1.225 -0.67875,-0.1237 -1.505,0.5125 -1.365,1.1913 0.1425,0.6175 0.5975,0.9937 1.15375,1 0.46875,0.01 1.3525,-0.335 1.3525,-0.9663 m 6.3199997,18.2313 c -0.22375,0.2075 -0.26875,0.4825 -0.13125,0.72 0.11375,0.195 0.46875,0.4762 0.73125,0.3437 0.20375,-0.096 0.39,-0.2737 0.2225,-0.7387 -0.1075,-0.3338 -0.58125,-0.5525 -0.8225,-0.325 m -2.3774997,-2.5763 c -0.25125,0.2163 -0.32125,0.4988 -0.2,0.7125 0.1025,0.1813 0.45875,0.4225 0.75625,0.25 0.2325,-0.1362 0.44375,-0.37 0.305,-0.775 -0.095,-0.2925 -0.5775,-0.4337 -0.86125,-0.1875 m 22.2399997,2.6338 c -0.2975,0.1037 -0.4325,0.58 -0.185,0.865 0.22,0.2525 0.495,0.3262 0.71125,0.1975 0.18625,-0.1013 0.4275,-0.4588 0.2475,-0.755 -0.135,-0.23 -0.365,-0.4413 -0.77375,-0.3075 m 4.95625,-21.0075 c -0.31,0.2725 -0.39125,0.6175 -0.23125,0.8875 0.12125,0.22 0.5675,0.5275 0.92375,0.3125 0.2775,-0.16 0.54125,-0.4525 0.36375,-0.955 -0.1225,-0.3663 -0.71375,-0.5413 -1.05625,-0.245 m 3.03375,10.36 c -0.0788,-0.2238 -0.43375,-0.33 -0.64625,-0.1425 -0.195,0.1612 -0.24625,0.3712 -0.15125,0.5362 0.07,0.1375 0.34125,0.3175 0.5675,0.185 0.1725,-0.1012 0.33375,-0.2762 0.23,-0.5787 m -3.8275,-5.965 c -0.23125,-0.076 -0.54875,0.1662 -0.52375,0.4625 0.0225,0.2687 0.165,0.4462 0.35375,0.4725 0.16375,0.016 0.49625,-0.1 0.52125,-0.3713 0.025,-0.2087 -0.025,-0.455 -0.35125,-0.5637 m -1.78125,16.6387 c -0.21375,0.078 -0.325,0.4325 -0.14,0.6475 0.16375,0.1938 0.37375,0.2475 0.54,0.1513 0.13375,-0.075 0.3125,-0.3463 0.1825,-0.5713 -0.10625,-0.1675 -0.27625,-0.33 -0.5825,-0.2275 m -0.12,-5.765 c -0.12125,-0.205 -0.34625,-0.3862 -0.7725,-0.2225 -0.30375,0.1175 -0.4925,0.5775 -0.26625,0.82 0.2075,0.225 0.48125,0.2638 0.7175,0.13 0.2,-0.1075 0.475,-0.465 0.32125,-0.7275 m 1.13625,-7.1112 c -0.25,0 -0.5675,0.1162 -0.8775,0.2225 -0.1075,0.04 -0.21875,0.081 -0.32625,0.1125 -0.16,0.053 -0.30625,0.079 -0.43125,0.079 -0.28125,0 -0.45375,-0.1187 -0.54625,-0.2187 -0.315,-0.3338 -0.28,-0.9338 -0.2425,-1.5688 0.0225,-0.3162 0.0375,-0.6412 0.006,-0.8775 -0.15125,-0.9462 -0.41625,-1.3287 -0.68375,-1.7075 -0.0813,-0.1162 -0.1725,-0.2425 -0.25,-0.3837 -0.14,-0.2338 -0.1825,-0.465 -0.125,-0.6663 0.105,-0.3475 0.4475,-0.53 0.7475,-0.6875 0.4225,-0.2225 0.47625,-0.2937 0.44125,-0.4137 -0.0888,-0.28 -0.20625,-0.28 -0.28125,-0.28 -0.14625,0 -0.34875,0.069 -0.565,0.1475 -0.27125,0.094 -0.55375,0.1937 -0.84625,0.1937 -0.1925,0 -0.3725,-0.043 -0.51875,-0.1325 -0.86875,-0.5112 -1.0475,-1.01 -1.21,-1.45 -0.1275,-0.3487 -0.25,-0.6775 -0.745,-1.0637 -0.59625,-0.4638 -1.04125,-0.5713 -1.36375,-0.6463 -0.3125,-0.074 -0.6325,-0.1525 -0.74375,-0.5425 -0.1725,-0.6412 0.3275,-0.995 0.6875,-1.2562 0.26125,-0.18 0.5,-0.3513 0.5175,-0.5738 0.0163,-0.265 -0.0337,-0.4725 -0.1575,-0.6037 -0.0987,-0.11 -0.25125,-0.17 -0.42875,-0.17 -0.33125,0 -0.72875,0.2275 -0.79125,0.655 l 0,0.01 0,0.01 c -0.22375,1.0512 -0.9375,1.4312 -1.5275,1.4312 -0.29625,0 -0.595,-0.094 -0.8525,-0.2575 -0.57375,-0.365 -1.22625,-0.5587 -1.85,-0.5587 -0.3125,0 -0.59875,0.049 -0.835,0.1462 -0.4325,0.1825 -0.865,0.285 -1.18375,0.285 -0.2975,0 -0.52,-0.086 -0.64625,-0.2512 -0.0863,-0.1075 -0.1575,-0.29 -0.0863,-0.5713 0.095,-0.3312 0.075,-0.605 -0.07,-0.7862 -0.1,-0.1288 -0.2625,-0.2063 -0.43125,-0.2063 -0.12625,0 -0.23,0.041 -0.2875,0.115 -0.065,0.095 -0.0488,0.2275 -0.0138,0.3238 0.1225,0.3812 0.21125,0.8287 -0.0238,1.2162 -0.23375,0.39 -0.75125,0.635 -1.61625,0.7863 -0.0875,0.013 -0.18375,0.023 -0.2575,0.023 -0.69875,0 -0.9125,-0.5488 -1.10375,-1.0313 -0.22625,-0.5825 -0.46125,-1.1762 -1.4825,-1.3 -0.0825,0 -0.16125,-0.013 -0.2375,-0.013 -0.7075,0 -1.36,0.365 -1.61875,0.9013 -0.22375,0.45 -0.1375,0.9725 0.2425,1.4675 0.12625,0.1525 0.335,0.285 0.52875,0.4125 0.34375,0.225 0.6925,0.4525 0.755,0.8575 0.0463,0.285 -0.0762,0.5912 -0.3625,0.9512 -0.38,0.4613 -0.7775,0.695 -1.17375,0.695 -0.38875,0 -0.7537497,-0.2162 -1.0999997,-0.6437 -0.13,-0.1688 -0.29375,-0.205 -0.40375,-0.205 -0.1825,0 -0.36125,0.093 -0.4775,0.245 -0.095,0.1162 -0.18875,0.33 -0.11375,0.65 0.0687,0.2775 0.3025,0.4437 0.54625,0.6237 0.2675,0.1888 0.535,0.385 0.58375,0.7238 0.04,0.2525 -0.06,0.515 -0.2975,0.8262 -0.5,0.6588 -0.95125,0.9613 -1.39375,0.9613 -0.4375,0 -0.7675,-0.2888 -1.08,-0.57 -0.28125,-0.2513 -0.54,-0.4788 -0.85125,-0.5113 -0.055,-0.01 -0.1075,-0.01 -0.165,-0.01 -0.24875,0 -0.4325,0.062 -0.545,0.19 -0.12875,0.165 -0.18125,0.435 -0.12125,0.79 0.12125,0.7475 0.51375,1.0625 1.40375,1.11 0.63375,0.033 0.96375,0.1488 1.135,0.3963 0.22125,0.3175 0.105,0.7025 -0.0487,1.2312 -0.1525,0.4875 -0.33,1.0963 -0.36125,1.8913 -0.0288,1.1275 0.2275,1.8325 0.41625,2.3487 0.215,0.595 0.4025,1.1175 -0.14875,1.7225 -0.405,0.5538 -0.945,0.7013 -1.4325,0.8213 -0.46875,0.1275 -0.8775,0.2387 -1.21125,0.6662 -0.2,0.2863 -0.24625,0.685 -0.1075,1.01 0.1425,0.3125 0.4075,0.51 0.7725,0.5575 0.0425,0 0.09,0.01 0.13875,0.01 0.50625,0 1.0075,-0.3412 1.50125,-0.6737 0.455,-0.31 0.87625,-0.5988 1.305,-0.5988 0.0188,0 0.035,0 0.0537,0 0.60875,0.041 0.7325,0.5575 0.83375,1.0113 0.095,0.4037 0.21,0.8612 0.5899997,1.2412 0.2225,0.2163 0.3825,0.405 0.48125,0.5763 0.0888,0.1675 0.1275,0.3187 0.11125,0.4712 -0.0375,0.345 -0.32875,0.5263 -0.64375,0.7225 -0.1199997,0.074 -0.2499997,0.1513 -0.3749997,0.2475 -0.31,0.2338 -0.35875,0.5 -0.30625,0.6563 0.0487,0.1412 0.175,0.2212 0.34625,0.2212 0.085,0 0.23375,-0.024 0.4412497,-0.1425 0.20875,-0.115 0.46875,-0.3287 0.7675,-0.6712 0.11875,-0.1725 0.3075,-0.36 0.395,-0.36 0.205,0.2437 0.41625,0.4975 0.62375,0.76 0.21125,0.2587 0.41125,0.5412 0.61,0.8712 1.45125,2.2488 1.73,5.43 1.81625,8.0188 0.095,0.4612 0.17125,8.9362 0.92875,10.335 0.1475,0.3075 0.7125,0.355 0.77,-0.092 0.09,-0.4588 0.56875,-6.8563 0.93875,-7.135 1.755,-1.2913 0.695,-7.115 1.98625,-8.7825 0.365,-0.46 1.10875,-0.7388 1.4825,-0.095 0.645,1.1137 0.555,2.2262 0.65375,3.3962 0.0288,0.2963 -0.0325,0.545 -0.0325,0.975 0,0.2925 -0.06,0.6975 0.0525,0.9513 0.095,0.2525 0.53625,0.3562 0.705,0.1362 0.62375,-0.7837 -0.27375,-1.7587 -0.085,-2.6812 0.075,-0.29 0.26375,-0.4163 0.4575,-0.46 0.64875,-0.091 1.0175,0.5537 1.205,1.105 0.31125,0.6162 0.96,0.5475 1.445,0.1575 0.185,-0.205 0.3525,-0.4188 0.49,-0.6525 0.41625,-0.6913 0.56875,-1.9525 0.3825,-2.645 -0.15,-0.5825 -0.65125,-0.835 -0.65125,-1.0163 0,-1.1087 0.74125,-2.2175 1.68625,-2.8675 0.26,-0.082 0.62875,0 0.90375,0.4763 0.30125,0.5 0.95375,0.8637 1.5525,0.8637 0.2,0 0.39,-0.036 0.55625,-0.1162 0.35125,-0.1613 0.7625,-0.5238 0.84,-0.925 0.0412,-0.2275 -0.0175,-0.4375 -0.2075,-0.6438 -0.135,-0.1525 -0.45375,-0.17 -0.78375,-0.1862 -0.49125,-0.027 -1.10125,-0.056 -1.40875,-0.5913 -0.33375,-0.5612 -0.21875,-0.7725 0.0913,-1.1037 0.2275,-0.2463 0.61625,-0.6575 0.99875,-1.7963 0.285,-0.8325 1.03875,-0.8787 1.6525,-0.915 0.66,-0.044 1.04125,-0.091 1.2,-0.6 0.24625,-0.7637 -0.19625,-1.155 -0.665,-1.57 -0.3525,-0.31 -0.72125,-0.6362 -0.58625,-1.105 0.2225,-0.76 0.58125,-1.055 1.275,-1.055 0.18625,0 0.40875,0.016 0.72875,0.065 0.0763,0.011 0.165,0.019 0.2525,0.019 0.41125,0 0.77,-0.1375 0.915,-0.3575 0.115,-0.1613 0.115,-0.3775 0.009,-0.6375 -0.15375,-0.4013 -0.365,-0.455 -0.56,-0.455 m -0.3325,-5.4813 c 0.21,0.2188 0.48375,0.2638 0.71875,0.1275 0.19,-0.11 0.47125,-0.4712 0.32375,-0.7275 -0.125,-0.2062 -0.3475,-0.3862 -0.77875,-0.23 -0.31375,0.1188 -0.49375,0.5825 -0.26375,0.83 m -18.29365,-8.3463 c 0.16125,0.019 0.49,-0.095 0.51375,-0.3675 0.02,-0.2087 -0.0238,-0.4587 -0.35,-0.5637 -0.2375,-0.077 -0.54875,0.1637 -0.5275,0.4662 0.0212,0.2663 0.16375,0.4388 0.36375,0.465 m 8.7175,0.8338 c 0.48875,0 1.05375,-0.2063 1.22125,-1.14 0.125,-0.6863 -0.5075,-1.5113 -1.18375,-1.3638 -0.6225,0.1363 -0.995,0.5838 -1.00625,1.15 -0.006,0.4713 0.3375,1.3538 0.96875,1.3538 m -9.87,-1.8463 c 0.12,0.02 0.3525,-0.064 0.37,-0.2612 0.0138,-0.1488 -0.0175,-0.33 -0.25,-0.4013 -0.16375,-0.051 -0.3975,0.1175 -0.37625,0.3325 0.0113,0.1925 0.11625,0.3125 0.25625,0.33 m 13.77375,1.1288 c 0.20125,-0.1163 0.375,-0.3425 0.2175,-0.7675 -0.1175,-0.31 -0.575,-0.4938 -0.82125,-0.2688 -0.22375,0.2088 -0.2725,0.4875 -0.13125,0.7213 0.1125,0.1962 0.46625,0.475 0.735,0.315 m 5.19625,9.5387 c 0.02,0.1875 0.12,0.3163 0.25875,0.3338 0.12375,0.013 0.3525,-0.069 0.36875,-0.2675 0.0175,-0.1475 -0.0163,-0.3238 -0.245,-0.3975 -0.17,-0.056 -0.3975,0.1175 -0.3825,0.3312 m 0.1425,-3.555 c 0.2775,-0.2187 0.5025,-0.57 0.24,-1.1012 -0.19625,-0.3913 -0.8725,-0.5175 -1.1975,-0.1425 -0.2925,0.3425 -0.31625,0.73 -0.10875,1.0112 0.17875,0.2325 0.71625,0.5125 1.06625,0.2325 m -24.0324997,-2.535 c 0.1775,-0.1062 0.33875,-0.28 0.24,-0.5875 -0.0775,-0.225 -0.44625,-0.33 -0.65625,-0.1462 -0.195,0.1675 -0.2475,0.38 -0.15375,0.55 0.0775,0.13 0.35125,0.3162 0.57,0.1837 m -7.3975,17.8475 c -0.22,0.2075 -0.2625,0.4813 -0.13,0.7225 0.115,0.19 0.46875,0.4713 0.72875,0.3175 0.20625,-0.1237 0.39125,-0.3462 0.2275,-0.7737 -0.11875,-0.3113 -0.58375,-0.4938 -0.82625,-0.2663 m -1.04625,-4.065 c -0.1525,-0.015 -0.3325,0.02 -0.405,0.25 -0.0575,0.1688 0.1175,0.3938 0.33125,0.38 0.18625,-0.016 0.32,-0.1175 0.335,-0.26 0.0125,-0.1175 -0.0775,-0.35 -0.26125,-0.37 m 11.2574997,-17.1475 c 0.2475,-0.072 0.64625,-0.4337 0.5225,-0.83 -0.0975,-0.3062 -0.31375,-0.6237 -0.83875,-0.5762 -0.39125,0.033 -0.69875,0.5675 -0.4875,0.9662 0.18625,0.3675 0.50375,0.5263 0.80375,0.44 m -5.5699997,7.345 c 0.14125,-0.08 0.32875,-0.35 0.19125,-0.57 -0.10875,-0.1762 -0.28,-0.3387 -0.585,-0.235 -0.22375,0.072 -0.3325,0.4425 -0.1475,0.6525 0.17,0.1988 0.37625,0.2538 0.54125,0.1525 m -2.65625,12.95 c 0.21,0.2225 0.48625,0.2637 0.71875,0.1287 0.2,-0.1087 0.47875,-0.4637 0.315,-0.7275 -0.115,-0.2037 -0.34375,-0.385 -0.77125,-0.2237 -0.305,0.1175 -0.48375,0.5812 -0.2625,0.8225 m -1.35375,-3.2725 c -0.205,-0.02 -0.4525,0.026 -0.565,0.345 -0.075,0.2375 0.1675,0.555 0.465,0.5312 0.26375,-0.019 0.44625,-0.165 0.46625,-0.36 0.0275,-0.1625 -0.0975,-0.49 -0.36625,-0.5162" />
  </g>
</svg>
