<?xml version="1.0" encoding="UTF-8" standalone="no"?>
<svg
   xmlns="http://www.w3.org/2000/svg"
   version="1.1"
   id="svg4470"
   viewBox="0 0 46.879999 52.771012"
   height="14.893152mm"
   width="13.230577mm">
  <defs
     id="defs4472" />

  <g
     transform="translate(-4.6792905e-6,-999.59119)"
     id="layer1">
    <path
       id="path278"
       style="fill:#c800dc;fill-opacity:1;fill-rule:nonzero;stroke:none"
       d="m 34.917861,1019.5017 c -0.236247,0.054 -0.494994,0.1938 -0.502494,0.55 0,0.26 0.387496,0.4838 0.704992,0.35 0.296247,-0.1237 0.437496,-0.33 0.393746,-0.535 -0.0362,-0.165 -0.278747,-0.4412 -0.596244,-0.365 m -1.327486,1.37 c -0.487495,-0.091 -1.084989,0.3713 -0.98124,0.8638 0.095,0.445 0.423746,0.7175 0.828742,0.7237 0.343746,0 0.97749,-0.2437 0.97749,-0.7012 0,-0.3525 -0.148749,-0.765 -0.824992,-0.8863 m 9.488653,-10.5487 c -0.311247,-0.1788 -0.762493,-0.053 -0.939991,0.2537 -0.202498,0.3388 -0.223747,0.8863 0.177498,1.2938 0.204998,0.2225 0.621244,0.2837 0.844992,0.1525 0.181248,-0.1013 0.558744,-0.3988 0.474995,-0.9275 -0.0875,-0.5063 -0.434996,-0.6975 -0.557494,-0.7725 m -2.149978,-6.5975 c -0.262498,-1.0963 -0.333747,-2.3125 -1.578734,-3.2925 -1.133738,-0.8863 -2.787471,-1.00505 -4.073708,-0.6688 -1.919981,0.5075 -2.743722,1.3825 -2.95497,1.6663 -0.214998,0.28 -1.213737,1.3312 -0.784992,3.3912 0.339997,1.645 1.467485,1.7275 0.889991,2.2063 -0.442495,0.3637 -1.031239,-0.1638 -2.196227,-0.1525 0.0488,-0.1488 0.0575,-0.31 -0.03,-0.4475 -0.174998,-0.2875 -0.489995,-0.5475 -1.102489,-0.3138 -0.418746,0.1563 -0.676243,0.73 -0.456245,1.0938 -1.173738,0.4537 -1.771232,1.1975 -2.253727,2.26 -0.0688,0.1675 -0.137499,0.3587 -0.186248,0.565 -0.213748,-0.33 -0.308747,-0.7063 -0.256247,-1.085 0.0425,-0.3175 0.269997,-0.5475 0.481245,-0.7663 0.303747,-0.31 0.433745,-0.4712 0.358746,-0.7212 -0.0675,-0.2338 -0.307497,-0.4113 -0.558744,-0.4113 -0.141249,0 -0.283747,0.061 -0.407496,0.1775 -0.0937,0.094 -0.112499,0.3588 -0.123749,0.5963 -0.025,0.395 -0.055,0.8462 -0.404996,1.1287 -0.171248,0.1338 -0.382496,0.1975 -0.621243,0.1975 -0.359997,0 -0.702493,-0.1837 -1.069989,-0.3837 -0.113749,-0.06 -0.229998,-0.1238 -0.347497,-0.1813 l -0.025,-0.015 c -0.0538,-0.025 -0.111248,-0.053 -0.166248,-0.077 -0.446245,-0.2137 -0.97124,-0.3662 -1.339986,-0.3937 -0.342497,-0.025 -0.617494,-0.046 -0.721243,-0.2963 -0.112498,-0.2462 0.0225,-0.6912 0.291247,-1.0275 0.509995,-0.6275 0.553745,-0.945 0.218748,-1.2487 -0.134998,-0.1125 -0.286247,-0.175 -0.447495,-0.175 -0.223748,0 -0.481245,0.1187 -0.721243,0.3287 -0.227498,0.1975 -0.186248,0.5238 -0.138748,0.8975 0.0412,0.3838 0.0912,0.7763 -0.174999,1.0813 -0.198748,0.2262 -0.521244,0.3325 -1.014989,0.3325 -0.114999,0 -0.236248,-0.01 -0.371246,-0.018 -0.323747,-0.025 -0.553745,-0.1338 -0.692493,-0.3225 -0.214998,-0.3013 -0.126249,-0.6813 -0.04,-1.0488 0.0538,-0.2462 0.111249,-0.5 0.065,-0.6775 -0.0763,-0.3612 -0.393746,-0.5437 -0.662493,-0.5437 -0.271247,0 -0.416245,0.067 -0.522494,0.4925 l -0.007,0.015 c -0.05,0.1737 0.075,0.5075 0.168748,0.7587 0.02,0.049 0.0425,0.096 0.0488,0.1388 0.02,0.055 0.045,0.11 0.0625,0.1537 0.0987,0.2363 0.177498,0.4563 0.0225,0.755 -0.075,0.1375 -0.336247,0.2288 -0.588744,0.2975 l -0.01,0.01 c -0.05,0.013 -0.117499,0.033 -0.197498,0.048 -0.244998,0.066 -0.431246,0.1175 -0.518745,0.1175 -0.836241,0 -0.854991,-0.435 -0.879991,-0.9312 -0.005,-0.086 -0.009,-0.1775 -0.0225,-0.2688 -0.065,-0.7212 -0.217497,-0.9887 -0.328746,-1.0825 -0.268748,-0.2287 -0.426246,-0.33 -0.696243,-0.33 -0.278747,0 -0.527495,0.1088 -0.709993,0.3038 -0.211248,0.235 -0.302497,0.5875 -0.249997,1.0037 0.0388,0.405 0.249997,0.635 0.466245,0.86 0.181248,0.1913 0.348746,0.375 0.387496,0.6413 0.06,0.6187 -0.586244,0.845 -1.099989,1.0287 -0.283747,0.1 -0.571244,0.2025 -0.777492,0.3488 -0.467495,0.33 -0.827491,0.6925 -1.112488,0.9825 -0.374996,0.3737 -0.618744,0.6225 -0.9249903,0.6225 -0.3724962,0 -0.5624943,-0.3675 -0.684993,-0.7275 -0.102499,-0.27 -0.3049969,-0.5875 -0.7474923,-0.5875 -0.1199988,0 -0.2437475,0.022 -0.3787461,0.065 -0.199998,0.064 -0.3687463,0.2487 -0.4499954,0.4925 -0.082499,0.245 -0.049999,0.5025 0.081299,0.695 0.081199,0.11 0.2499975,0.1912 0.4212457,0.2725 0.3324966,0.1637 0.8437414,0.4087 0.7724921,1.0875 -0.073699,0.6375 -0.8462413,1.2337 -1.3949857,1.2337 -0.2049979,0 -0.3799961,-0.076 -0.4924949,-0.2262 -0.3749962,-0.4775 -0.5299946,-0.625 -0.7424924,-0.625 -0.064999,0 -0.1412486,0.01 -0.2224977,0.032 -0.2149978,0.058 -0.3699962,0.18 -0.4424955,0.3375 -0.066199,0.1612 -0.0387,0.3687 0.088799,0.6037 0.054999,0.1025 0.1687483,0.1263 0.4312456,0.1588 0.3099968,0.044 0.779992,0.1012 0.9299904,0.65 0.063699,0.2362 0.0462,0.4275 -0.0488,0.5862 -0.1449985,0.2513 -0.4262456,0.3163 -0.6699931,0.375 -0.3962459,0.1025 -0.5637442,0.1675 -0.587494,0.4863 0,0.05 0.1137489,0.1125 0.3199968,0.1975 0.2637473,0.115 0.6249935,0.265 0.6449933,0.6612 0.015,0.6025 -0.478745,0.7888 -0.7674921,0.9025 -0.2374975,0.086 -0.3487464,0.14 -0.3699962,0.2288 -0.0175,0.069 -0.0275,0.086 0.2687473,0.21 0.2349975,0.096 0.5562442,0.2337 0.6537432,0.57 0.072499,0.185 0.0288,0.3937 -0.1087488,0.5825 -0.2312477,0.3137 -0.8074917,0.655 -1.7249823,0.655 -0.1712483,0 -0.3374966,-0.013 -0.5124948,-0.038 l -0.187498,-0.024 c -0.5312446,-0.071 -1.0362394,-0.135 -1.4899847,-0.135 -0.589994,0 -1.0399894,0.1112 -1.43498532,0.3612 -0.27999712,0.1725 -0.43874549,0.3713 -0.43874549,0.4663 -0.006,0.04 0.0524995,0.082 0.094999,0.1137 0.009,0.01 0.10624891,0.07 0.46249531,0.07 0.3499964,0 0.7574922,-0.064 1.0237395,-0.115 0.1449985,-0.029 0.2962469,-0.064 0.4524953,-0.094 0.6749931,-0.145 1.3787359,-0.2962 2.0824786,-0.2962 0.391246,0 0.7462424,0.048 1.074989,0.145 0.7687421,0.2012 0.5612442,0.9987 0.4624952,1.3862 -0.02,0.09 -0.053699,0.205 -0.053699,0.2513 -0.009,0.7287 0.4487454,0.9187 0.9787399,1.1325 0.3762462,0.1487 0.7249926,0.2962 0.8712411,0.65 0.087499,0.24 0.052499,0.5212 -0.1049989,0.8612 -0.096299,0.1963 -0.3074969,0.3263 -0.5324946,0.465 -0.1724982,0.1063 -0.4349955,0.2675 -0.4587452,0.3963 -0.005,0.059 0.0325,0.1425 0.1174988,0.2412 0.0362,0.046 0.1149988,0.07 0.2274976,0.07 0.2049979,0 0.4712452,-0.077 0.7087427,-0.1437 0.1799982,-0.055 0.3587464,-0.1025 0.5037449,-0.1188 0.1087488,-0.015 0.2199977,-0.016 0.3124968,-0.016 0.4474954,0 0.7187426,0.135 0.8049917,0.4025 0.2049979,0.5975 -0.8337414,1.5313 -1.7374822,2.21 -0.1862481,0.14 -0.4962449,0.3238 -0.8962408,0.5525 -0.8399913,0.485 -2.8062211,1.625 -2.6337229,2.1813 0.1074989,0.34 0.2787471,0.3837 0.4187457,0.3837 0.5099947,0 1.3287363,-0.62 1.9162303,-1.4325 0.584994,-0.8187 0.9274905,-1.1225 1.7774818,-1.745 0.3499964,-0.2462 0.8187415,-0.595 1.3649859,-0.595 0.2499972,0 0.4937452,0.076 0.7224922,0.2088 0.388746,0.2375 0.592494,0.5525 0.617494,0.9412 0.055,1.01 -1.259987,2.0575 -1.4062355,2.1738 -0.6024938,0.4612 -0.9562402,1.1025 -0.8837409,1.5912 0.0513,0.3538 0.3274966,0.4088 0.484995,0.4088 0.1662483,0 0.3362466,-0.056 0.4774951,-0.17 0.3399963,-0.2575 0.5299943,-0.7275 0.7324923,-1.225 0.326247,-0.81 0.698743,-1.7288 1.873731,-1.7775 0.0188,0 0.0488,0 0.0675,0 1.512485,0 1.682483,1.9187 1.797482,3.185 0.0187,0.1925 0.0388,0.395 0.0575,0.6087 0.113749,1.1813 0.237498,2.5238 0.192498,3.6238 -0.0488,1.105 -0.243747,2.6937 -0.902491,3.9712 -0.121248,0.2288 -0.257497,0.46 -0.401246,0.7063 -0.548744,0.915 -1.119988,1.8575 -0.693742,2.7437 0.095,0.1963 0.193748,0.3388 0.287497,0.48 0.203747,0.275 0.386246,0.545 0.428745,1.1088 0.0462,0.58 -0.0775,1.1225 -0.192498,1.645 -0.0362,0.1825 -0.0788,0.3712 -0.113749,0.5575 -0.308747,1.7325 -0.187498,2.865 0.357497,3.3775 0.251247,0.2312 0.514994,0.3537 0.782492,0.3537 0.724992,0 1.434985,-0.7887 1.822481,-1.4612 1.087489,-1.86 0.612494,-4.8838 0.272497,-7.0988 l -0.006,-0.01 c -0.0263,-0.1962 -0.0612,-0.38 -0.085,-0.5675 -0.448745,-2.9625 -0.561244,-5.5262 -0.362496,-8.0675 0.154998,-1.7887 0.233747,-2.4625 0.664993,-3.6162 0.204998,-0.5425 0.489995,-1.0963 1.108739,-1.0963 0.123748,0 0.254997,0.021 0.399995,0.065 0.309997,0.095 0.352497,0.3063 0.392496,0.535 0.05,0.2713 0.114999,0.6088 0.684993,0.935 1.327487,0.77 1.582484,1.3263 1.299987,2.8588 -0.259997,1.3687 -0.731242,3.9175 0.101249,5.0462 0.298747,0.3988 0.646243,0.48 0.889991,0.48 l 0.07,0 c 0.222498,0 0.392496,-0.1737 0.522495,-0.3212 0.581244,-0.6913 0.238747,-5.4875 0,-6.9225 -0.0987,-0.5238 -0.172498,-0.975 -0.193748,-1.2863 -0.05,-0.965 0.243747,-1.19 0.588744,-1.455 0.1,-0.081 0.212498,-0.1612 0.317496,-0.2737 0.0975,-0.1125 0.186249,-0.3313 0.289997,-0.5638 0.183749,-0.455 0.397496,-0.9637 0.793742,-0.9637 0.149999,0 0.314997,0.054 0.421246,0.1087 0.532495,0.245 0.616244,0.6325 0.698743,1.0113 0.0488,0.2125 0.0925,0.41 0.219998,0.5825 0.107498,0.155 0.242497,0.215 0.393746,0.2762 0.291247,0.125 0.587493,0.2488 0.562494,1.0688 -0.0125,0.4275 -0.04,0.8325 -0.07,1.185 -0.0663,0.8175 -0.111248,1.4637 0.132499,1.7712 0.136249,0.1675 0.318747,0.2463 0.559994,0.2463 0.0525,0 0.0987,0 0.151249,-0.01 0.254997,-0.03 0.437495,-0.1375 0.556244,-0.3463 0.473745,-0.8262 -0.127499,-2.8087 -0.492495,-3.6375 -0.571244,-1.2925 -0.727492,-2.8162 -0.346246,-3.4025 0.119998,-0.185 0.289997,-0.2862 0.493745,-0.2862 0.403745,0 0.849991,0.4587 1.346236,1.4062 0.0475,0.096 0.132498,0.2125 0.267497,0.2125 0.148749,0 0.297497,-0.1162 0.367496,-0.2775 0.0987,-0.24 0.009,-0.5212 -0.246247,-0.78 -0.509995,-0.525 -0.739993,-0.9675 -0.724993,-1.3987 0.0213,-0.3363 0.187498,-0.6463 0.508745,-0.925 l 0.01,0 c 0.159998,-0.1325 0.324997,-0.1963 0.498745,-0.1963 0.304997,0 0.533744,0.1963 0.757492,0.3838 0.193748,0.16 0.378746,0.31 0.568744,0.31 0.0762,0 0.146249,-0.016 0.227498,-0.06 0.201248,-0.1013 0.408746,-0.3725 0.387496,-0.6313 -0.0275,-0.3062 -0.363746,-0.5762 -0.95499,-0.755 -0.159999,-0.05 -0.262498,-0.1375 -0.314997,-0.2637 -0.0888,-0.23 0.045,-0.4525 0.204998,-0.7288 0.259997,-0.4325 0.632493,-1.08 0.526244,-2.0575 -0.0325,-0.2737 0.01,-0.4825 0.144999,-0.6212 l 0.02,-0.029 c 0.106249,-0.1188 0.243747,-0.2775 0.444995,-0.2775 0.198748,0 0.481245,0.055 0.636244,0.092 0.0987,0.021 0.193748,0.065 0.281247,0.11 0.107499,0.055 0.209998,0.1012 0.306247,0.1012 0.217497,0 0.347496,-0.053 0.449995,-0.1812 0.123749,-0.165 0.1,-0.2338 0.06,-0.345 -0.104999,-0.2413 -0.343746,-0.3425 -0.798741,-0.3425 l -0.085,0 c -0.784992,0 -0.94874,-0.2513 -1.057489,-0.5088 -0.156248,-0.3675 -0.131248,-1.6437 0.223748,-2.12 0.509995,-0.6875 0.718743,-0.7025 1.189988,-0.7325 0.0412,0 0.0925,-0.01 0.141248,-0.01 0.629994,-0.046 1.04249,-0.255 1.04124,-0.5225 0,-0.01 -0.01,-0.023 -0.01,-0.034 0.438745,-0.145 0.778742,-0.3075 0.98999,-0.4375 0.867491,-0.56 0.172498,1.3925 1.419985,1.3513 1.353736,-0.039 1.892481,-1.1763 1.827481,-1.7288 -0.138748,-1.13 -1.691232,-0.1487 -1.134988,-1.3337 0.307497,-0.6538 0.591244,-1.315 0.476245,-2.3675 -0.162498,-1.5438 -0.904991,-1.8975 -0.336247,-2.5275 0.562495,-0.6275 1.517485,0.7525 3.033719,-0.9663 1.074989,-1.2225 0.932491,1.66 3.012469,0.8375 2.069979,-0.8275 2.363726,-3.2875 1.506235,-4.6125 -1.333736,-2.0562 -2.92997,0.6438 -3.197467,-0.4487 m 5.942439,7.225 c -0.0813,-0.5638 -0.546245,-0.7525 -0.718743,-0.8225 -0.411246,-0.18 -1.044989,-0.01 -1.319986,0.3475 -0.306247,0.4012 -0.374997,1.01 0.144998,1.4387 0.272497,0.2363 0.834992,0.2738 1.167488,0.1088 0.252498,-0.1288 0.804992,-0.49 0.726243,-1.0725 m -44.2482957,5.5612 c 0,-0.5112 -0.2149978,-1.1012 -1.1874879,-1.2775 -0.71499265,-0.1275 -1.57623381,0.5338 -1.41748544,1.24 0.13749859,0.65 0.60499379,1.0375 1.19623774,1.0438 0.484995,0.01 1.4087356,-0.35 1.4087356,-1.0063 m 25.3172897,-14.3453 c 0.117499,-0.061 0.366246,-0.2225 0.331247,-0.4837 -0.0387,-0.2575 -0.254998,-0.345 -0.327497,-0.38 -0.191248,-0.077 -0.476245,0 -0.597494,0.1587 -0.144998,0.1825 -0.173748,0.4625 0.0588,0.6588 0.123748,0.1025 0.387496,0.12 0.534994,0.046 m -16.051085,3.1437 c 0.402496,-0.3162 0.729992,-0.8475 0.263747,-1.7225 -0.338746,-0.635 -1.397485,-0.8987 -1.853731,-0.3387 -0.4212452,0.51 -0.4349951,1.1225 -0.0712,1.59 0.293747,0.3862 1.144988,0.8837 1.661233,0.4712 m 15.57859,0.645 c 0.542494,-0.084 0.95124,-0.4812 0.95124,-0.845 0.002,-0.3575 -0.206248,-0.91 -0.744992,-1.0587 -0.268747,-0.067 -0.662493,-0.115 -1.141238,0.2087 -0.364997,0.2475 -0.389996,0.82 -0.131249,1.1863 0.263747,0.3675 0.662493,0.5762 1.066239,0.5087 m -22.5010188,5.3163 c 0.2374975,-0.1313 0.5562443,-0.5913 0.3324966,-0.9675 -0.1712483,-0.2888 -0.4799951,-0.555 -0.9962398,-0.38 -0.3824961,0.1287 -0.5674942,0.745 -0.2537474,1.1025 0.2824971,0.3262 0.6387434,0.4112 0.9174906,0.245 m -0.6112437,1.63 c 0.3124968,-0.02 0.5099947,-0.1663 0.5349945,-0.375 0.0275,-0.1688 -0.1162488,-0.5088 -0.4299956,-0.5425 -0.2499974,-0.025 -0.5399945,0.023 -0.6599932,0.36 -0.084999,0.2425 0.2074978,0.5775 0.5549943,0.5575" />
  </g>
</svg>
