<?xml version="1.0" encoding="UTF-8" standalone="no"?>
<svg
   xmlns="http://www.w3.org/2000/svg"
   version="1.1"
   id="svg4493"
   viewBox="0 0 35.975 42.176727"
   height="11.90321mm"
   width="10.152945mm">
  <defs
     id="defs4495" />

  <g
     transform="translate(2.8137396e-7,-1010.1855)"
     id="layer1">
    <path
       id="path298"
       style="fill:#00c8b4;fill-opacity:1;fill-rule:nonzero;stroke:none"
       d="m 2.9756159,1042.5941 c -0.3787536,0.012 -0.4837546,0.1225 -0.638756,0.3275 -0.1562515,0.2012 -0.2212521,0.5562 -0.1637515,0.85 0.0288,0.1525 0.1012509,0.3625 0.2987528,0.485 0.2562524,0.1612 0.3475032,0.2825 0.647506,0.27 0.2500023,-0.013 0.2412523,-0.077 0.4425041,-0.2138 0.3412532,-0.2262 0.4712544,-0.9137 0.2475023,-1.2675 -0.2325021,-0.3537 -0.4612543,-0.4712 -0.8337577,-0.4512 m 24.9852331,-0.75 c 0,0 -0.0175,0 -0.0288,0 -0.417504,0.034 -0.640006,0.3737 -0.595006,0.925 0.0412,0.5662 0.291253,0.9162 0.647506,0.9025 0.005,-0.01 0.0163,-0.01 0.0163,-0.01 0.382504,-0.027 0.785008,-0.5788 0.752507,-1.0263 -0.03,-0.4762 -0.370003,-0.815 -0.792507,-0.8012 m 7.980074,-16.405 c -0.0987,-0.445 -0.700006,-0.905 -1.488764,-0.87 -0.176251,0.01 -0.353753,0.04 -0.518754,0.098 -0.685007,0.2337 -1.673766,0.8625 -2.466273,1.3662 -0.410004,0.2588 -0.791258,0.4963 -1.07251,0.6525 -0.193752,0.105 -0.365004,0.1575 -0.511255,0.1625 -0.332503,0.019 -0.501255,-0.21 -0.508755,-0.435 -0.009,-0.2262 0.130001,-0.4675 0.380004,-0.4812 l 0.0212,0 0.133751,0 c 0.415004,-0.021 0.696257,-0.16 0.776257,-0.39 0.0675,-0.1588 0.0275,-0.345 -0.0925,-0.4613 -0.0763,-0.08 -0.156251,-0.115 -0.242502,-0.11 -0.132501,0.01 -0.285003,0.095 -0.432504,0.1825 -0.156251,0.095 -0.325003,0.1913 -0.497505,0.2013 -0.205001,0.011 -0.375003,-0.1063 -0.511254,-0.3538 -0.163752,-0.28 -0.163752,-0.72 -0.001,-1.0225 0.120001,-0.2187 0.318753,-0.3525 0.566255,-0.3712 0.656256,-0.051 1.146261,-0.2413 1.305012,-0.515 0.0838,-0.1275 0.0762,-0.2688 0,-0.4238 -0.0325,-0.076 -0.0888,-0.105 -0.158751,-0.1012 -0.200002,0.01 -0.521255,0.2212 -0.830008,0.4312 -0.197502,0.1325 -0.408754,0.2675 -0.593756,0.3575 -0.111251,0.061 -0.226252,0.087 -0.335003,0.095 -0.521255,0.022 -0.872508,-0.4862 -1.05876,-0.7587 l -0.0288,-0.041 c -0.172501,-0.2513 -0.433754,-0.795 -0.277502,-1.225 0.0838,-0.2388 0.273752,-0.4 0.561255,-0.4838 0.881258,-0.2525 1.162511,-0.725 1.13001,-1.08 -0.0337,-0.335 -0.333753,-0.5875 -0.751257,-0.6287 -0.0437,0 -0.0863,0 -0.130001,0 -0.497505,0.022 -0.726257,0.4987 -0.920008,0.8837 -0.015,0.025 -0.0287,0.054 -0.035,0.076 -0.153751,0.3088 -0.356253,0.3775 -0.497504,0.385 -0.152502,0.01 -0.318753,-0.06 -0.457505,-0.1875 -0.175001,-0.1662 -0.283752,-0.3925 -0.288752,-0.5962 -0.0175,-0.555 0.270002,-0.9763 0.838757,-1.2638 0.872509,-0.44 1.256262,-0.9675 1.242512,-1.2675 -0.004,-0.135 -0.105001,-0.2412 -0.275003,-0.3125 -0.08,-0.029 -0.165001,-0.045 -0.240002,-0.036 -0.400004,0.016 -0.835008,0.4313 -1.301262,1.2263 -0.157501,0.26 -0.396254,0.6037 -0.743757,0.6212 -0.0875,0 -0.172501,-0.01 -0.261252,-0.048 -0.211252,-0.087 -0.372504,-0.3012 -0.415004,-0.5575 -0.04,-0.2062 -0.035,-0.6187 0.443754,-1.0575 0.747507,-0.6925 1.181261,-1.6112 1.12876,-2.3987 -0.0312,-0.4938 -0.245002,-0.895 -0.627505,-1.1588 -0.322503,-0.2287 -0.617506,-0.3375 -0.876259,-0.3237 -0.798757,0.039 -1.16876,1.2362 -1.388763,1.9625 -0.232502,0.75 -0.450004,1.1862 -0.908758,1.2062 -0.115001,0 -0.240002,-0.013 -0.383754,-0.061 -0.776257,-0.2462 -0.661256,-1.0675 -0.598755,-1.4612 0.0125,-0.115 0.0263,-0.2225 0.0462,-0.3138 0.0813,-0.4825 0.0788,-0.6112 -0.0888,-0.6637 -0.0275,-0.01 -0.045,-0.01 -0.045,-0.01 -0.196252,0 -0.333753,0.3912 -0.362503,0.9337 -0.02,0.5388 -0.400004,0.8613 -1.02626,0.8863 -0.161251,0.01 -0.346253,-0.01 -0.511255,-0.041 -0.528755,-0.1138 -1.13876,-0.3713 -1.167511,-1.3513 -0.006,-0.24 -0.0775,-0.435 -0.213752,-0.5537 -0.102501,-0.1 -0.253752,-0.1538 -0.423754,-0.1475 -0.200001,0.01 -0.385003,0.1 -0.500004,0.245 -0.0987,0.1287 -0.138751,0.2837 -0.103751,0.4562 0.0525,0.3025 -0.025,0.6213 -0.211252,0.8563 -0.133751,0.1675 -0.387504,0.3662 -0.831258,0.3887 -0.196252,0.013 -0.418754,-0.022 -0.651256,-0.082 -1.153761,-0.3275 -1.277512,-1.4437 -1.253762,-2.4962 0.01,-0.1813 -0.0387,-0.3288 -0.136251,-0.4275 -0.0712,-0.073 -0.176252,-0.1113 -0.277503,-0.1075 -0.137501,0.01 -0.246252,0.077 -0.308752,0.1837 -0.0913,0.1463 -0.0763,0.3675 0.035,0.6088 l 0.0462,0.1 c 0.350004,0.7362 0.820008,1.74 0.498755,2.3437 -0.195002,0.35 -0.622506,0.6038 -1.06001,0.6225 -0.423754,0.023 -0.805007,-0.155 -1.08626,-0.505 -0.168752,-0.2112 -0.458754,-0.3562 -0.696257,-0.3437 -0.0875,0 -0.206251,0.028 -0.275002,0.1325 -0.0888,0.1187 -0.0913,0.3287 -0.0138,0.5875 l 0.0138,0.055 c 0.161251,0.5225 0.298753,0.975 -0.170002,1.2562 -0.111251,0.066 -0.217502,0.1 -0.331253,0.1013 -0.7075063,0.036 -1.2750116,-1.1425 -2.0625189,-2.9425 -0.2387522,-0.5463 -0.5275049,-0.8625 -0.7837573,-0.8463 -0.1362513,0 -0.2437523,0.1125 -0.3000028,0.2813 -0.068801,0.2375 -0.0225,0.6125 0.3537533,0.8912 0.5850054,0.4225 1.9737684,2.2275 2.036269,3.0225 0.025,0.26 -0.0537,0.5025 -0.2212521,0.6938 -0.2025019,0.2225 -0.5250049,0.3725 -0.8437579,0.3887 -0.1800016,0.01 -0.3425031,-0.029 -0.4525042,-0.105 -0.2300021,-0.165 -0.3525033,-0.3537 -0.4612543,-0.5187 -0.1400013,-0.22 -0.2500023,-0.3888 -0.5462551,-0.4525 -0.076201,-0.013 -0.1475014,-0.02 -0.217502,-0.015 -0.1625015,0.01 -0.3000028,0.065 -0.3625034,0.1675 -0.075001,0.1012 -0.086301,0.2275 -0.0425,0.3775 0.105001,0.3337 0.3262531,0.4412 0.5900055,0.5625 0.2462523,0.1162 0.5212549,0.2462 0.7062566,0.5862 0.107501,0.2063 0.107501,0.4363 0.006,0.6163 -0.098701,0.1762 -0.2862527,0.2875 -0.5025047,0.3 -0.073701,0 -0.1600015,-0.01 -0.2475023,-0.032 -1.0312597,-0.29 -2.8150263,-1.4288 -3.2312802,-2.06 -0.087501,-0.1338 -0.215002,-0.1575 -0.3050028,-0.1538 -0.2237521,0.01 -0.4412541,0.1738 -0.4837545,0.36 -0.0312,0.18 0.1037509,0.3613 0.3987537,0.5125 0.1162511,0.06 0.3087529,0.145 0.5275049,0.235 0.9450088,0.4125 2.5262736,1.0975 2.8062762,1.9963 0.111251,0.3162 0.0362,0.5225 -0.050001,0.6375 -0.110001,0.1625 -0.3175029,0.2625 -0.5612552,0.275 -0.1225012,0 -0.2362522,-0.01 -0.3450032,-0.044 -0.2387523,-0.069 -0.4737545,-0.2613 -0.7300068,-0.4713 -0.2987528,-0.24 -0.6037557,-0.4875 -0.856258,-0.475 -0.1137511,0 -0.2175021,0.074 -0.316253,0.2038 -0.088801,0.1237 -0.108751,0.2412 -0.053801,0.3637 0.1675016,0.4038 1.0487598,0.7813 1.7212661,0.8738 0.3337531,0.041 0.4475041,0.2412 0.4375041,0.4162 -0.01,0.23 -0.211252,0.4275 -0.4375041,0.4413 -0.093701,0 -0.1962519,-0.026 -0.2775026,-0.086 -0.2050019,-0.1363 -0.4050038,-0.2075 -0.5662553,-0.2 -0.2350022,0.014 -0.3437532,0.1612 -0.3562533,0.3025 -0.006,0.1587 0.1225011,0.3725 0.5275049,0.4287 0.3625034,0.055 0.5037547,0.2625 0.5700053,0.4275 0.1287512,0.395 -0.097501,0.9225 -0.322503,1.1488 -0.2650025,0.2812 -0.6100057,0.4287 -1.0225095,0.4487 -0.422504,0.024 -0.9200086,-0.1037 -1.4812639,-0.3737 -0.2975027,-0.1425 -0.5800054,-0.2125 -0.8362578,-0.2 -0.3000028,0.016 -0.5650052,0.1412 -0.7637571,0.3587 -0.2412522,0.2675 -0.3800035,0.6613 -0.35750329,1.05 0.0213002,0.4675 0.35750329,1.33 1.46376359,1.28 0.2212521,-0.01 0.4650044,-0.06 0.7350069,-0.145 0.537505,-0.1725 1.0087594,-0.2737 1.4150132,-0.2925 0.5137548,-0.025 0.9000084,0.086 1.0862601,0.31 0.106251,0.1275 0.1475014,0.2863 0.106251,0.465 -0.075001,0.3638 -0.4987546,0.5663 -1.2562617,0.5988 -0.2062519,0.011 -0.4075038,0 -0.541255,0 -0.053701,0 -0.100001,0 -0.1487514,0 -0.3412532,0.017 -0.5387551,0.1537 -0.5250049,0.3625 0.009,0.2587 0.3062528,0.5662 0.647506,0.545 0.086201,0 0.1600015,-0.023 0.2362522,-0.058 0.4675044,-0.2288 0.9187586,-0.4288 1.281262,-0.4475 0.2025019,-0.01 0.3662534,0.048 0.4812545,0.165 0.218752,0.23 0.4700043,0.92 0.3575033,1.47 -0.065001,0.3087 -0.2362522,0.5337 -0.5012547,0.6437 -0.4112538,0.1788 -0.7837573,0.2413 -1.2150113,0.3175 -0.3750035,0.067 -0.7937574,0.14 -1.3187623,0.305 -0.5125048,0.1588 -0.6912565,0.5938 -0.6287559,0.925 0.0425,0.2725 0.2662525,0.56 0.743757,0.5375 0.0438,0 0.107501,-0.01 0.1525014,-0.015 0.6762563,-0.1162 0.963759,-0.2325 1.4075131,-0.4512 0.3587534,-0.1763 0.641256,-0.3288 0.9337587,-0.3725 0.058801,-0.01 0.1175011,-0.014 0.1737516,-0.017 0.4100039,-0.015 0.7350069,0.1162 0.956259,0.3912 0.1925018,0.245 0.2950027,0.575 0.3162529,0.9913 0.0375,0.8512 -0.8475079,1.9225 -1.9225179,2.6825 -0.7337569,0.5175 -0.9537589,0.9737 -0.9187586,1.2287 0.0262,0.1488 0.075001,0.31 0.2662525,0.3713 0.025,0.011 0.108751,0.015 0.1387513,0.015 0.2575024,-0.011 0.5075047,-0.1763 0.7887573,-0.525 0.072501,-0.092 0.1400013,-0.2513 0.213752,-0.3388 l 0.065001,-0.08 c 0.3837536,-0.4575 0.8225077,-0.975 1.2100113,-0.99 0.090001,-0.01 0.1962519,0 0.2562524,0.08 0.095001,0.105 -0.0213,0.3388 -0.0275,0.4525 -0.004,0.1238 0.006,0.4388 0.035,0.62 0.0188,0.3288 0.2950027,0.565 0.0438,0.9625 -0.0513,0.049 -0.1000009,0.1 -0.1487514,0.1513 -0.6950065,0.7162 -0.7187567,1.1962 -0.6950065,1.3687 0.0125,0.1288 0.075001,0.22 0.1575015,0.2725 0.0163,0.013 0.0337,0.013 0.050001,0.013 0.1425013,0 0.3712534,-0.2712 0.5812554,-0.5712 1.0425097,-1.2175 2.1700202,0.9912 2.4212726,4.8137 0.4175038,6.4025 5.1612988,6.6313 5.7700538,2.6375 0.498755,-3.25 2.502524,-6.1312 3.080029,2.7925 0.181252,2.9188 3.566283,2.5725 3.707535,-1.28 0.0562,-1.6875 0.085,-3.5812 1.211261,-3.6337 1.12626,-0.051 1.190011,-4.1788 1.207511,-4.4325 0.0437,-0.6388 0.582506,-0.9175 0.862508,-0.4875 0.0937,0.175 0.201252,0.335 0.322503,0.47 0.0838,0.085 0.176252,0.1325 0.280003,0.1237 0.131251,0 0.265002,-0.098 0.337503,-0.2362 0.05,-0.094 0.120001,-0.2963 -0.0375,-0.5538 -0.127502,-0.21 -0.331254,-0.435 -0.542505,-0.6737 -0.233753,-0.3625 -0.233753,-0.5575 -0.120002,-0.7913 0.170002,-0.3512 0.665007,-0.5337 0.881259,-0.5875 0.123751,-0.018 0.227502,-0.074 0.313753,-0.1687 0.161251,-0.175 0.223752,-0.38 0.170001,-0.5813 -0.0263,-0.095 -0.07,-0.1875 -0.140001,-0.2675 -0.252503,-0.2675 0.0463,-0.8737 0.247502,-0.9975 0.208752,-0.1237 0.572505,-0.1925 1.005009,0.1488 0.412504,0.35 0.837508,0.7912 1.168761,1.2337 0.247503,0.3213 0.711257,0.5313 1.163761,0.5088 0.296253,-0.013 0.712507,-0.1325 0.99876,-0.6163 0.281252,-0.4962 0.0325,-1.1312 -0.607506,-1.555 -0.416254,-0.27 -1.320012,-0.41 -1.976269,-0.5125 -0.246252,-0.037 -0.455004,-0.066 -0.592505,-0.1012 -0.316253,-0.069 -0.577505,-0.2525 -0.702507,-0.4888 -0.123751,-0.215 -0.145001,-0.46 -0.0625,-0.7175 0.0962,-0.2937 0.396254,-0.6225 0.817507,-0.6412 0.117502,0 0.233753,0.016 0.351254,0.061 0.123751,0.051 0.241252,0.1125 0.356253,0.1712 0.221252,0.1113 0.428754,0.215 0.581255,0.21 0.055,0 0.141252,-0.024 0.207502,-0.1712 0.0588,-0.115 0.0588,-0.2163 0.006,-0.305 -0.142501,-0.2213 -0.601255,-0.3688 -1.208761,-0.3863 -0.458754,-0.013 -0.715006,-0.2812 -0.715006,-0.5275 -0.006,-0.1975 0.170001,-0.41 0.542505,-0.4275 0.0175,0 0.0437,0 0.0663,0 0.263753,0 0.423754,0.115 0.573756,0.2125 0.155001,0.1025 0.296252,0.1963 0.566255,0.185 0.0762,0 0.157501,-0.014 0.253752,-0.037 0.245002,-0.054 0.336253,-0.2225 0.370004,-0.3537 0.0613,-0.2313 -0.01,-0.5063 -0.163752,-0.6475 -0.123751,-0.1063 -0.268752,-0.1538 -0.480004,-0.1463 -0.123752,0.01 -0.272503,0.036 -0.406254,0.062 -0.132501,0.026 -0.271253,0.058 -0.405004,0.061 -0.0512,0 -0.108751,0 -0.150001,0 -0.358754,-0.046 -0.570006,-0.3762 -0.553756,-0.8512 0.0263,-0.5388 0.348754,-1.1263 0.936259,-1.1525 l 0.0575,0 c 0.635006,0.011 2.008769,0.3637 2.592524,0.6612 0.308753,0.1588 0.591255,0.2388 0.806257,0.2288 0.236253,-0.011 0.396254,-0.1263 0.493755,-0.3575 0.0412,-0.1063 0.03,-0.1938 -0.025,-0.2863 -0.150002,-0.235 -0.632506,-0.4075 -1.210011,-0.4362 -0.273753,-0.014 -0.860008,-0.053 -1.437514,-0.084 -0.352503,-0.025 -0.687506,-0.047 -0.937509,-0.056 -0.360003,-0.024 -0.547505,-0.3463 -0.547505,-0.6513 0.006,-0.3337 0.207502,-0.58 0.498755,-0.59 0.055,0 0.128751,0 0.197502,0.024 0.196252,0.053 0.371253,0.1038 0.540005,0.1513 0.632506,0.1825 1.08751,0.31 1.402513,0.295 0.197502,-0.01 0.323753,-0.07 0.422504,-0.195 0.132501,-0.1825 0.165001,-0.3675 0.095,-0.5025 -0.0725,-0.135 -0.247503,-0.2113 -0.475005,-0.2 -0.177501,0.01 -0.318753,-0.086 -0.340003,-0.2238 -0.0213,-0.1175 0.0213,-0.3437 0.573755,-0.5362 0.241253,-0.084 0.488755,-0.1313 0.753758,-0.1488 0.322503,-0.01 0.633755,0.025 0.930008,0.065 0.296253,0.035 0.597506,0.075 0.915009,0.061 0.228752,-0.014 0.447504,-0.051 0.665006,-0.1175 0.567505,-0.1762 0.813758,-0.6137 0.682506,-1.2075 m -0.572505,4.465 -0.0212,0 c -0.445004,0.035 -0.568756,0.47 -0.551255,0.8263 0.0175,0.3062 0.278752,0.5125 0.622505,0.4962 0.0188,0 0.0387,0 0.045,-0.01 0.285003,-0.029 0.510005,-0.405 0.483754,-0.8062 -0.0213,-0.3713 -0.301252,-0.5238 -0.578755,-0.5113 m -33.8003156,-7.2025 c -0.0462,-0.6137 -0.2737525,-0.93 -0.89250828,-0.9062 l -0.002,0 c -0.23875223,0.019 -0.32750305,0.06 -0.46875437,0.2187 -0.14500136,0.1638 -0.21750203,0.3913 -0.20250189,0.6363 0.04250039,0.4762 0.27375255,0.9275 0.76500714,0.905 l 0.0100001,0 c 0.2325021,-0.014 0.4500041,-0.1125 0.5937555,-0.2838 0.1412513,-0.1562 0.211252,-0.3612 0.1975018,-0.57 m 2.2875214,17.84 c -0.0163,0 -0.04,10e-4 -0.057501,0.01 -0.1862517,0.036 -0.3912536,0.1963 -0.3775035,0.4663 0.0125,0.3375 0.1300012,0.4362 0.4987547,0.4262 l 0.007,0 c 0.1587515,-0.01 0.2912527,-0.089 0.3775036,-0.2187 0.071201,-0.12 0.085001,-0.2738 0.0213,-0.4025 -0.077501,-0.17 -0.2812527,-0.2863 -0.4700044,-0.2763 m 18.2190198,-28.2275 c 0.009,0 0.015,0 0.015,0 0.390004,-0.032 0.793757,-0.58 0.758757,-1.0325 -0.0275,-0.4737 -0.368753,-0.8175 -0.783757,-0.8012 -0.0188,0 -0.0225,0 -0.0363,0 -0.428754,0.041 -0.642506,0.3775 -0.602506,0.9312 0.0462,0.5638 0.303753,0.9175 0.648756,0.9025 m 10.582599,10.4013 c 0.0163,0 0.04,0 0.0625,-0.01 0.433754,-0.048 0.476255,-0.1463 0.697507,-0.4663 0.261252,-0.3725 0.318753,-0.8925 0.177501,-1.4562 -0.06,-0.2288 -0.267502,-0.51 -0.445004,-0.5938 -0.135001,-0.061 -0.283752,-0.09 -0.436254,-0.08 -0.648756,0.03 -0.998759,0.5388 -1.13251,1.22 -0.0687,0.3588 0.0312,0.7425 0.262502,1.02 0.220002,0.2413 0.508755,0.3738 0.813758,0.3625 m -20.955196,-10.0637 0.0163,0 c 0.300003,-0.018 0.567506,-0.2288 0.766257,-0.4488 0.198752,-0.2187 0.247503,-0.6737 0.228753,-0.95 -0.0387,-0.6675 -0.343754,-1.0925 -1.07001,-1.0612 -0.255003,0.016 -0.572506,0.2125 -0.762507,0.42 -0.218753,0.2525 -0.200002,0.8462 -0.181252,1.2037 0.045,0.4338 0.471254,0.8625 1.002509,0.8388 m -6.0813064,1.3425 c 0.0175,0 0.0487,0 0.076301,-0.01 0.071201,-0.011 0.2687526,-0.155 0.2412523,-0.3375 -0.071301,-0.4063 -0.3625034,-0.4438 -0.4812545,-0.4438 l -0.007,0 c -0.0525,0 -0.1025009,0.037 -0.1500014,0.089 -0.066201,0.084 -0.096201,0.2063 -0.076301,0.3225 0.0413,0.26 0.1712516,0.39 0.3975037,0.3775 m 0.2712526,-1.3662 c 0.2237521,0.1175 0.2637524,0.1762 0.4487542,0.1687 0.0463,0 0.082501,-0.01 0.1287512,-0.016 0.1937518,-0.048 0.4937546,-0.2025 0.5237548,-0.6337 0.0275,-0.3875 -0.076301,-0.8613 -0.432504,-0.985 -0.1175011,-0.041 -0.2362522,-0.056 -0.3525033,-0.052 -0.2687525,0.011 -0.3487532,0.1175 -0.4950046,0.38 -0.1212511,0.205 -0.1450013,0.555 -0.102501,0.715 0.045001,0.1375 0.1100011,0.3362 0.2812527,0.4237" />
  </g>
</svg>
